G04*
G04 #@! TF.GenerationSoftware,Altium Limited,Altium Designer,19.1.8 (144)*
G04*
G04 Layer_Color=65535*
%FSLAX44Y44*%
%MOMM*%
G71*
G01*
G75*
%ADD10C,0.2000*%
%ADD11C,0.1000*%
%ADD12C,0.2540*%
%ADD13C,0.2500*%
%ADD14C,0.1270*%
%ADD15C,0.2032*%
D10*
X667250Y458950D02*
G03*
X667250Y458950I-500J0D01*
G01*
X609600Y-50100D02*
G03*
X609600Y-48100I0J1000D01*
G01*
D02*
G03*
X609600Y-50100I0J-1000D01*
G01*
X368300Y400050D02*
Y504190D01*
X342900Y400050D02*
Y504190D01*
Y400050D02*
X368300D01*
X342900Y504190D02*
X368300D01*
X302260Y398780D02*
X327660D01*
X302260D02*
Y500380D01*
X327660Y398780D02*
Y500380D01*
X302260D02*
X327660D01*
X547650Y493400D02*
X582650D01*
Y446400D02*
Y493400D01*
X547650Y446400D02*
X582650D01*
X547650D02*
Y493400D01*
X525650Y490650D02*
X544150D01*
X591250Y218250D02*
Y226250D01*
X615250Y218250D02*
Y226250D01*
X534924Y213106D02*
X548432D01*
X533400Y211582D02*
X534924Y213106D01*
X534874Y193344D02*
X548282D01*
X533400Y194818D02*
X534874Y193344D01*
X533400Y194818D02*
Y211582D01*
X435400Y279900D02*
X514000D01*
X435400Y380500D02*
X504400D01*
X302150Y340100D02*
Y340600D01*
X320150Y340100D02*
Y340600D01*
X302150Y370600D02*
Y371100D01*
X320150Y370600D02*
Y371100D01*
X302150D02*
X320150D01*
X302150Y340100D02*
X320150D01*
X657580Y249460D02*
X664080D01*
X657580Y182460D02*
Y249460D01*
Y182460D02*
X664080D01*
X547650Y360050D02*
X582650D01*
Y313050D02*
Y360050D01*
X547650Y313050D02*
X582650D01*
X547650D02*
Y360050D01*
X525650Y357300D02*
X544150D01*
D11*
X298650Y370850D02*
G03*
X298650Y370850I-500J0D01*
G01*
X707500Y298450D02*
Y450850D01*
X626000Y298450D02*
X707500D01*
X626000D02*
Y450850D01*
X707500D01*
X549600Y114900D02*
X669600D01*
X549600Y8900D02*
X669600D01*
D12*
X412750Y215900D02*
G03*
X425450Y215900I6350J0D01*
G01*
X165100Y9800D02*
G03*
X152400Y9800I-6350J360D01*
G01*
X510850Y463296D02*
G03*
X510850Y463296I-60000J0D01*
G01*
X351790Y12700D02*
Y215900D01*
Y12700D02*
X486410D01*
Y215900D01*
X425450D02*
X486410D01*
X351790D02*
X412750D01*
X138430Y45720D02*
X179070D01*
X128270Y35560D02*
X138430Y45720D01*
X128270Y22860D02*
Y35560D01*
X189230Y22860D02*
Y35560D01*
X179070Y45720D02*
X189230Y35560D01*
X128270Y22860D02*
X189230D01*
X166370Y10160D02*
X185420D01*
X238760D02*
Y495300D01*
X103505D02*
X196215D01*
X78740Y10160D02*
Y495300D01*
Y10160D02*
X151130D01*
X185420D02*
X238760D01*
X196215Y495300D02*
X238760D01*
X78740D02*
X103505D01*
X426212Y482346D02*
Y492506D01*
X420878Y487426D02*
X431038D01*
D13*
X641330Y248760D02*
G03*
X641330Y248760I-1250J0D01*
G01*
D14*
X168910Y27943D02*
Y34290D01*
X167640Y35560D01*
X165101D01*
X163832Y34290D01*
Y27943D01*
X156214Y29212D02*
X157484Y27943D01*
X160023D01*
X161292Y29212D01*
Y30482D01*
X160023Y31751D01*
X157484D01*
X156214Y33021D01*
Y34290D01*
X157484Y35560D01*
X160023D01*
X161292Y34290D01*
X153675Y27943D02*
Y35560D01*
X149866D01*
X148597Y34290D01*
Y33021D01*
X149866Y31751D01*
X153675D01*
X149866D01*
X148597Y30482D01*
Y29212D01*
X149866Y27943D01*
X153675D01*
X289560Y406400D02*
Y414017D01*
X293369D01*
X294638Y412748D01*
Y410209D01*
X293369Y408939D01*
X289560D01*
X297178Y406400D02*
X299717D01*
X298447D01*
Y414017D01*
X297178Y412748D01*
X632206Y265173D02*
Y258826D01*
X633476Y257556D01*
X636015D01*
X637284Y258826D01*
Y265173D01*
X643632Y257556D02*
Y265173D01*
X639823Y261365D01*
X644902D01*
X411480Y523239D02*
X410211Y524509D01*
X407672D01*
X406402Y523239D01*
Y518161D01*
X407672Y516891D01*
X410211D01*
X411480Y518161D01*
X417828Y516891D02*
Y524509D01*
X414020Y520700D01*
X419098D01*
X247650Y45718D02*
Y39370D01*
X248920Y38100D01*
X251459D01*
X252728Y39370D01*
Y45718D01*
X255268Y44448D02*
X256537Y45718D01*
X259076D01*
X260346Y44448D01*
Y43178D01*
X259076Y41909D01*
X257807D01*
X259076D01*
X260346Y40639D01*
Y39370D01*
X259076Y38100D01*
X256537D01*
X255268Y39370D01*
X317500Y223517D02*
Y217170D01*
X318770Y215900D01*
X321309D01*
X322578Y217170D01*
Y223517D01*
X330196Y215900D02*
X325117D01*
X330196Y220978D01*
Y222248D01*
X328926Y223517D01*
X326387D01*
X325117Y222248D01*
X375920Y505457D02*
X378459D01*
X377190D01*
Y497840D01*
X375920D01*
X378459D01*
X387346Y504188D02*
X386077Y505457D01*
X383537D01*
X382268Y504188D01*
Y499110D01*
X383537Y497840D01*
X386077D01*
X387346Y499110D01*
X389885Y504188D02*
X391155Y505457D01*
X393694D01*
X394964Y504188D01*
Y502918D01*
X393694Y501649D01*
X392425D01*
X393694D01*
X394964Y500379D01*
Y499110D01*
X393694Y497840D01*
X391155D01*
X389885Y499110D01*
X293370Y386077D02*
Y379730D01*
X294640Y378460D01*
X297179D01*
X298448Y379730D01*
Y386077D01*
X300987Y378460D02*
X303527D01*
X302257D01*
Y386077D01*
X300987Y384808D01*
X543052Y167386D02*
Y175004D01*
X546861D01*
X548130Y173734D01*
Y171195D01*
X546861Y169925D01*
X543052D01*
X545591D02*
X548130Y167386D01*
X550670Y173734D02*
X551939Y175004D01*
X554478D01*
X555748Y173734D01*
Y172464D01*
X554478Y171195D01*
X555748Y169925D01*
Y168656D01*
X554478Y167386D01*
X551939D01*
X550670Y168656D01*
Y169925D01*
X551939Y171195D01*
X550670Y172464D01*
Y173734D01*
X551939Y171195D02*
X554478D01*
X600202Y167386D02*
Y175004D01*
X604011D01*
X605280Y173734D01*
Y171195D01*
X604011Y169925D01*
X600202D01*
X602741D02*
X605280Y167386D01*
X612898Y175004D02*
X607820D01*
Y171195D01*
X610359Y172464D01*
X611628D01*
X612898Y171195D01*
Y168656D01*
X611628Y167386D01*
X609089D01*
X607820Y168656D01*
X392684Y378968D02*
Y386586D01*
X396493D01*
X397762Y385316D01*
Y382777D01*
X396493Y381507D01*
X392684D01*
X395223D02*
X397762Y378968D01*
X404110D02*
Y386586D01*
X400302Y382777D01*
X405380D01*
X393700Y323850D02*
Y331468D01*
X397509D01*
X398778Y330198D01*
Y327659D01*
X397509Y326389D01*
X393700D01*
X396239D02*
X398778Y323850D01*
X406396D02*
X401317D01*
X406396Y328928D01*
Y330198D01*
X405126Y331468D01*
X402587D01*
X401317Y330198D01*
X536702Y256286D02*
Y263904D01*
X540511D01*
X541780Y262634D01*
Y260095D01*
X540511Y258825D01*
X536702D01*
X539241D02*
X541780Y256286D01*
X544319Y262634D02*
X545589Y263904D01*
X548128D01*
X549398Y262634D01*
Y261364D01*
X548128Y260095D01*
X546859D01*
X548128D01*
X549398Y258825D01*
Y257556D01*
X548128Y256286D01*
X545589D01*
X544319Y257556D01*
X360934Y378968D02*
Y386586D01*
X364743D01*
X366012Y385316D01*
Y382777D01*
X364743Y381507D01*
X360934D01*
X363473D02*
X366012Y378968D01*
X368551D02*
X371091D01*
X369821D01*
Y386586D01*
X368551Y385316D01*
X545336Y139444D02*
X542797D01*
X544067D01*
Y133096D01*
X542797Y131826D01*
X541528D01*
X540258Y133096D01*
X552954Y131826D02*
X547876D01*
X552954Y136904D01*
Y138174D01*
X551684Y139444D01*
X549145D01*
X547876Y138174D01*
X622044Y482090D02*
X619505D01*
X620775D01*
Y475742D01*
X619505Y474472D01*
X618236D01*
X616966Y475742D01*
X624584Y474472D02*
X627123D01*
X625853D01*
Y482090D01*
X624584Y480820D01*
X497840Y271777D02*
X500379D01*
X499110D01*
Y264160D01*
X497840D01*
X500379D01*
X509266Y270508D02*
X507997Y271777D01*
X505457D01*
X504188Y270508D01*
Y265430D01*
X505457Y264160D01*
X507997D01*
X509266Y265430D01*
X511805Y264160D02*
X514345D01*
X513075D01*
Y271777D01*
X511805Y270508D01*
X552450Y223517D02*
Y215900D01*
X556259D01*
X557528Y217170D01*
Y222248D01*
X556259Y223517D01*
X552450D01*
X560067Y215900D02*
X562607D01*
X561337D01*
Y223517D01*
X560067Y222248D01*
X303528Y247648D02*
X302259Y248918D01*
X299720D01*
X298450Y247648D01*
Y242570D01*
X299720Y241300D01*
X302259D01*
X303528Y242570D01*
X311146Y248918D02*
X308607Y247648D01*
X306068Y245109D01*
Y242570D01*
X307337Y241300D01*
X309876D01*
X311146Y242570D01*
Y243839D01*
X309876Y245109D01*
X306068D01*
X17778Y120648D02*
X16509Y121917D01*
X13970D01*
X12700Y120648D01*
Y115570D01*
X13970Y114300D01*
X16509D01*
X17778Y115570D01*
X25396Y121917D02*
X20317D01*
Y118109D01*
X22857Y119378D01*
X24126D01*
X25396Y118109D01*
Y115570D01*
X24126Y114300D01*
X21587D01*
X20317Y115570D01*
X396238Y402588D02*
X394969Y403857D01*
X392430D01*
X391160Y402588D01*
Y397510D01*
X392430Y396240D01*
X394969D01*
X396238Y397510D01*
X403856Y396240D02*
X398778D01*
X403856Y401318D01*
Y402588D01*
X402586Y403857D01*
X400047D01*
X398778Y402588D01*
X608328Y253998D02*
X607059Y255268D01*
X604520D01*
X603250Y253998D01*
Y248920D01*
X604520Y247650D01*
X607059D01*
X608328Y248920D01*
X610868Y253998D02*
X612137Y255268D01*
X614676D01*
X615946Y253998D01*
Y252728D01*
X614676Y251459D01*
X613407D01*
X614676D01*
X615946Y250189D01*
Y248920D01*
X614676Y247650D01*
X612137D01*
X610868Y248920D01*
X322578Y323848D02*
X321309Y325117D01*
X318770D01*
X317500Y323848D01*
Y318770D01*
X318770Y317500D01*
X321309D01*
X322578Y318770D01*
X325117Y317500D02*
X327657D01*
X326387D01*
Y325117D01*
X325117Y323848D01*
X527050Y439417D02*
Y431800D01*
X530859D01*
X532128Y433070D01*
Y434339D01*
X530859Y435609D01*
X527050D01*
X530859D01*
X532128Y436878D01*
Y438148D01*
X530859Y439417D01*
X527050D01*
X534668Y431800D02*
Y439417D01*
X538476D01*
X539746Y438148D01*
Y435609D01*
X538476Y434339D01*
X534668D01*
X537207D02*
X539746Y431800D01*
X547363D02*
X542285D01*
X547363Y436878D01*
Y438148D01*
X546094Y439417D01*
X543555D01*
X542285Y438148D01*
X524256Y377696D02*
Y370078D01*
X528065D01*
X529334Y371348D01*
Y372617D01*
X528065Y373887D01*
X524256D01*
X528065D01*
X529334Y375156D01*
Y376426D01*
X528065Y377696D01*
X524256D01*
X531874Y370078D02*
Y377696D01*
X535682D01*
X536952Y376426D01*
Y373887D01*
X535682Y372617D01*
X531874D01*
X534413D02*
X536952Y370078D01*
X539491D02*
X542030D01*
X540761D01*
Y377696D01*
X539491Y376426D01*
D15*
X79584Y523660D02*
X77468Y525776D01*
X73236D01*
X71120Y523660D01*
Y521544D01*
X73236Y519428D01*
X77468D01*
X79584Y517312D01*
Y515196D01*
X77468Y513080D01*
X73236D01*
X71120Y515196D01*
X90164Y513080D02*
X85932D01*
X83816Y515196D01*
Y519428D01*
X85932Y521544D01*
X90164D01*
X92280Y519428D01*
Y517312D01*
X83816D01*
X102860Y513080D02*
X98628D01*
X96512Y515196D01*
Y519428D01*
X98628Y521544D01*
X102860D01*
X104976Y519428D01*
Y517312D01*
X96512D01*
X109208Y525776D02*
Y513080D01*
X115556D01*
X117672Y515196D01*
Y517312D01*
Y519428D01*
X115556Y521544D01*
X109208D01*
X121903D02*
Y515196D01*
X124019Y513080D01*
X130367D01*
Y521544D01*
X134599D02*
Y513080D01*
Y517312D01*
X136715Y519428D01*
X138831Y521544D01*
X140947D01*
X151527Y508848D02*
X153643D01*
X155759Y510964D01*
Y521544D01*
X149411D01*
X147295Y519428D01*
Y515196D01*
X149411Y513080D01*
X155759D01*
X172687Y523660D02*
X174803Y525776D01*
X179035D01*
X181151Y523660D01*
Y521544D01*
X179035Y519428D01*
X176919D01*
X179035D01*
X181151Y517312D01*
Y515196D01*
X179035Y513080D01*
X174803D01*
X172687Y515196D01*
X185383Y525776D02*
Y513080D01*
X189615Y517312D01*
X193847Y513080D01*
Y525776D01*
X198079Y513080D02*
Y521544D01*
X202311Y525776D01*
X206543Y521544D01*
Y513080D01*
Y519428D01*
X198079D01*
X223471Y513080D02*
Y525776D01*
X227703Y521544D01*
X231935Y525776D01*
Y513080D01*
X236166D02*
Y525776D01*
X242514D01*
X244630Y523660D01*
Y519428D01*
X242514Y517312D01*
X236166D01*
X248862Y523660D02*
X250978Y525776D01*
X255210D01*
X257326Y523660D01*
Y521544D01*
X255210Y519428D01*
X253094D01*
X255210D01*
X257326Y517312D01*
Y515196D01*
X255210Y513080D01*
X250978D01*
X248862Y515196D01*
X274254Y513080D02*
Y525776D01*
X280602D01*
X282718Y523660D01*
Y519428D01*
X280602Y517312D01*
X274254D01*
X286950Y513080D02*
X291182D01*
X289066D01*
Y525776D01*
X286950D01*
X299646Y521544D02*
X303878D01*
X305994Y519428D01*
Y513080D01*
X299646D01*
X297530Y515196D01*
X299646Y517312D01*
X305994D01*
X310226Y521544D02*
Y515196D01*
X312342Y513080D01*
X318690D01*
Y510964D01*
X316574Y508848D01*
X314458D01*
X318690Y513080D02*
Y521544D01*
X329270Y513080D02*
X325038D01*
X322922Y515196D01*
Y519428D01*
X325038Y521544D01*
X329270D01*
X331386Y519428D01*
Y517312D01*
X322922D01*
X335618Y521544D02*
Y513080D01*
Y517312D01*
X337734Y519428D01*
X339850Y521544D01*
X341966D01*
X394121Y232407D02*
X387350D01*
Y227328D01*
X390736D01*
X387350D01*
Y222250D01*
X397507D02*
Y232407D01*
X404278Y222250D01*
Y232407D01*
X407663Y227328D02*
X414435D01*
X417820Y222250D02*
Y232407D01*
X421206Y229021D01*
X424591Y232407D01*
Y222250D01*
X427977D02*
X431362D01*
X429670D01*
Y232407D01*
X427977Y230714D01*
X443212Y232407D02*
X439826Y230714D01*
X436441Y227328D01*
Y223943D01*
X438134Y222250D01*
X441519D01*
X443212Y223943D01*
Y225636D01*
X441519Y227328D01*
X436441D01*
X446598Y222250D02*
Y232407D01*
X451676D01*
X453369Y230714D01*
Y227328D01*
X451676Y225636D01*
X446598D01*
X254421Y29207D02*
X247650D01*
Y19050D01*
X254421D01*
X247650Y24128D02*
X251036D01*
X264578Y27514D02*
X262885Y29207D01*
X259499D01*
X257807Y27514D01*
Y25821D01*
X259499Y24128D01*
X262885D01*
X264578Y22436D01*
Y20743D01*
X262885Y19050D01*
X259499D01*
X257807Y20743D01*
X267963Y19050D02*
Y29207D01*
X273042D01*
X274735Y27514D01*
Y24128D01*
X273042Y22436D01*
X267963D01*
X278120Y27514D02*
X279813Y29207D01*
X283199D01*
X284891Y27514D01*
Y25821D01*
X283199Y24128D01*
X281506D01*
X283199D01*
X284891Y22436D01*
Y20743D01*
X283199Y19050D01*
X279813D01*
X278120Y20743D01*
X295048Y19050D02*
X288277D01*
X295048Y25821D01*
Y27514D01*
X293355Y29207D01*
X289970D01*
X288277Y27514D01*
X722719Y313603D02*
X721026Y311910D01*
Y308525D01*
X722719Y306832D01*
X724411D01*
X726104Y308525D01*
Y311910D01*
X727797Y313603D01*
X729490D01*
X731182Y311910D01*
Y308525D01*
X729490Y306832D01*
X731182Y316989D02*
Y320374D01*
Y318682D01*
X724411D01*
Y316989D01*
X734568Y328838D02*
Y330531D01*
X732875Y332224D01*
X724411D01*
Y327145D01*
X726104Y325453D01*
X729490D01*
X731182Y327145D01*
Y332224D01*
X734568Y358053D02*
Y351282D01*
X727797Y358053D01*
X726104D01*
X724411Y356360D01*
Y352975D01*
X726104Y351282D01*
X734568Y366517D02*
X724411D01*
X729490Y361439D01*
Y368210D01*
X724411Y371595D02*
X731182D01*
X734568Y374981D01*
X731182Y378367D01*
X724411D01*
X734568Y381752D02*
X727797D01*
X724411Y385138D01*
X727797Y388523D01*
X734568D01*
X729490D01*
Y381752D01*
X726104Y398680D02*
X724411Y396987D01*
Y393602D01*
X726104Y391909D01*
X732875D01*
X734568Y393602D01*
Y396987D01*
X732875Y398680D01*
X734568Y427903D02*
Y421132D01*
X727797Y427903D01*
X726104D01*
X724411Y426210D01*
Y422825D01*
X726104Y421132D01*
X734568Y436367D02*
X724411D01*
X729490Y431289D01*
Y438060D01*
X724411Y441445D02*
X731182D01*
X734568Y444831D01*
X731182Y448217D01*
X724411D01*
X734568Y451602D02*
X727797D01*
X724411Y454988D01*
X727797Y458373D01*
X734568D01*
X729490D01*
Y451602D01*
X726104Y468530D02*
X724411Y466837D01*
Y463452D01*
X726104Y461759D01*
X732875D01*
X734568Y463452D01*
Y466837D01*
X732875Y468530D01*
X729490Y471916D02*
Y478687D01*
X726104Y488843D02*
X724411Y487151D01*
Y483765D01*
X726104Y482072D01*
X732875D01*
X734568Y483765D01*
Y487151D01*
X732875Y488843D01*
X729490D01*
Y485458D01*
X487680Y530856D02*
Y522392D01*
X491912Y518160D01*
X496144Y522392D01*
Y530856D01*
X506724Y518160D02*
X502492D01*
X500376Y520276D01*
Y524508D01*
X502492Y526624D01*
X506724D01*
X508840Y524508D01*
Y522392D01*
X500376D01*
X513072Y526624D02*
Y518160D01*
Y522392D01*
X515188Y524508D01*
X517304Y526624D01*
X519420D01*
X534232Y518160D02*
X525768D01*
X534232Y526624D01*
Y528740D01*
X532116Y530856D01*
X527884D01*
X525768Y528740D01*
X538464Y530856D02*
Y518160D01*
X544812D01*
X546927Y520276D01*
Y522392D01*
Y524508D01*
X544812Y526624D01*
X538464D01*
X553275Y516044D02*
X555391Y518160D01*
Y520276D01*
X553275D01*
Y518160D01*
X555391D01*
X553275Y516044D01*
X551159Y513928D01*
X576551Y518160D02*
Y526624D01*
X580783Y530856D01*
X585015Y526624D01*
Y518160D01*
Y524508D01*
X576551D01*
X589247Y526624D02*
Y520276D01*
X591363Y518160D01*
X597711D01*
Y526624D01*
X606175Y513928D02*
X608291D01*
X610407Y516044D01*
Y526624D01*
X604059D01*
X601943Y524508D01*
Y520276D01*
X604059Y518160D01*
X610407D01*
X635799D02*
X627335D01*
X635799Y526624D01*
Y528740D01*
X633683Y530856D01*
X629451D01*
X627335Y528740D01*
X640031D02*
X642147Y530856D01*
X646379D01*
X648495Y528740D01*
Y520276D01*
X646379Y518160D01*
X642147D01*
X640031Y520276D01*
Y528740D01*
X661190Y518160D02*
X652727D01*
X661190Y526624D01*
Y528740D01*
X659074Y530856D01*
X654843D01*
X652727Y528740D01*
X665422D02*
X667538Y530856D01*
X671770D01*
X673886Y528740D01*
Y526624D01*
X671770Y524508D01*
X669654D01*
X671770D01*
X673886Y522392D01*
Y520276D01*
X671770Y518160D01*
X667538D01*
X665422Y520276D01*
X294640Y271776D02*
Y259080D01*
X303104D01*
X309452Y267544D02*
X313684D01*
X315800Y265428D01*
Y259080D01*
X309452D01*
X307336Y261196D01*
X309452Y263312D01*
X315800D01*
X322148Y259080D02*
Y269660D01*
Y265428D01*
X320032D01*
X324264D01*
X322148D01*
Y269660D01*
X324264Y271776D01*
X330612Y259080D02*
X334844D01*
X332728D01*
Y271776D01*
X330612D01*
X347539Y259080D02*
X343308D01*
X341192Y261196D01*
Y265428D01*
X343308Y267544D01*
X347539D01*
X349655Y265428D01*
Y263312D01*
X341192D01*
X353887Y267544D02*
Y261196D01*
X356003Y259080D01*
X362351D01*
Y267544D01*
X366583D02*
Y259080D01*
Y263312D01*
X368699Y265428D01*
X370815Y267544D01*
X372931D01*
X391975Y271776D02*
Y259080D01*
X398323D01*
X400439Y261196D01*
Y269660D01*
X398323Y271776D01*
X391975D01*
X411019Y259080D02*
X406787D01*
X404671Y261196D01*
Y265428D01*
X406787Y267544D01*
X411019D01*
X413135Y265428D01*
Y263312D01*
X404671D01*
X417367Y259080D02*
X423715D01*
X425831Y261196D01*
X423715Y263312D01*
X419483D01*
X417367Y265428D01*
X419483Y267544D01*
X425831D01*
X430063Y259080D02*
X434295D01*
X432179D01*
Y267544D01*
X430063D01*
X444875Y254848D02*
X446991D01*
X449107Y256964D01*
Y267544D01*
X442759D01*
X440643Y265428D01*
Y261196D01*
X442759Y259080D01*
X449107D01*
X453339D02*
Y267544D01*
X459687D01*
X461802Y265428D01*
Y259080D01*
X466035D02*
X472382D01*
X474498Y261196D01*
X472382Y263312D01*
X468150D01*
X466035Y265428D01*
X468150Y267544D01*
X474498D01*
M02*
