G04*
G04 #@! TF.GenerationSoftware,Altium Limited,Altium Designer,19.1.8 (144)*
G04*
G04 Layer_Physical_Order=1*
G04 Layer_Color=255*
%FSLAX44Y44*%
%MOMM*%
G71*
G01*
G75*
%ADD12C,0.2540*%
%ADD15C,0.2032*%
%ADD16R,1.8500X0.9500*%
%ADD17R,2.6000X1.1000*%
%ADD18R,1.1000X1.4000*%
%ADD19R,1.3000X1.5000*%
%ADD20R,1.4500X0.5500*%
%ADD21R,1.4500X0.5500*%
G04:AMPARAMS|DCode=22|XSize=1.524mm|YSize=1.778mm|CornerRadius=0.0838mm|HoleSize=0mm|Usage=FLASHONLY|Rotation=90.000|XOffset=0mm|YOffset=0mm|HoleType=Round|Shape=RoundedRectangle|*
%AMROUNDEDRECTD22*
21,1,1.5240,1.6104,0,0,90.0*
21,1,1.3564,1.7780,0,0,90.0*
1,1,0.1676,0.8052,0.6782*
1,1,0.1676,0.8052,-0.6782*
1,1,0.1676,-0.8052,-0.6782*
1,1,0.1676,-0.8052,0.6782*
%
%ADD22ROUNDEDRECTD22*%
G04:AMPARAMS|DCode=23|XSize=5.45mm|YSize=6.6mm|CornerRadius=0.0545mm|HoleSize=0mm|Usage=FLASHONLY|Rotation=90.000|XOffset=0mm|YOffset=0mm|HoleType=Round|Shape=RoundedRectangle|*
%AMROUNDEDRECTD23*
21,1,5.4500,6.4910,0,0,90.0*
21,1,5.3410,6.6000,0,0,90.0*
1,1,0.1090,3.2455,2.6705*
1,1,0.1090,3.2455,-2.6705*
1,1,0.1090,-3.2455,-2.6705*
1,1,0.1090,-3.2455,2.6705*
%
%ADD23ROUNDEDRECTD23*%
%ADD24R,1.4000X1.1000*%
%ADD25R,1.5000X1.3000*%
%ADD47C,0.3048*%
%ADD48C,0.3810*%
%ADD49C,0.7620*%
%ADD50C,0.5080*%
%ADD51C,0.6350*%
%ADD52C,1.5000*%
%ADD53R,1.5000X1.5000*%
%ADD54R,1.2000X1.2000*%
%ADD55C,1.2000*%
%ADD56R,1.9500X1.9500*%
%ADD57C,1.9500*%
%ADD58C,0.8000*%
%ADD59O,2.5400X1.2700*%
%ADD60R,2.5400X1.2700*%
%ADD61C,2.5000*%
%ADD62C,1.0160*%
D12*
X361950Y361950D02*
Y364490D01*
X57150Y355600D02*
X88900D01*
X50800D02*
X57150D01*
X101600Y342900D02*
X139700D01*
X88900Y355600D02*
X101600Y342900D01*
D15*
X599440Y237694D02*
X601384Y235750D01*
X698720Y218440D02*
X711170D01*
X430609Y334089D02*
Y341709D01*
X407670Y311150D02*
X430609Y334089D01*
X396850Y311150D02*
X407670D01*
X386080Y398900D02*
Y403980D01*
X372366Y311150D02*
X375920Y314704D01*
Y324104D02*
X381000Y329184D01*
X375920Y314704D02*
Y324104D01*
X381000Y387350D02*
Y398900D01*
Y329184D02*
Y387350D01*
Y398900D02*
Y403980D01*
X519230Y324050D02*
X534900D01*
X508000Y335280D02*
X519230Y324050D01*
X508000Y335280D02*
Y342900D01*
X279400Y193040D02*
Y426720D01*
X274320Y431800D02*
X279400Y426720D01*
X260350Y431800D02*
X274320D01*
X241300Y406400D02*
X260350D01*
X234950Y400050D02*
X241300Y406400D01*
X396850Y300330D02*
Y311150D01*
X394970Y298450D02*
X396850Y300330D01*
X367030Y298450D02*
X394970D01*
X364784Y300696D02*
X367030Y298450D01*
X364784Y300696D02*
Y326684D01*
X368300Y330200D01*
X330200Y127000D02*
X355600D01*
X325669D02*
X330200D01*
X355600D02*
X442722Y39878D01*
X323850Y125181D02*
X325669Y127000D01*
X625450Y123850D02*
X660000Y89300D01*
X559200D02*
X568300Y98400D01*
X241300Y165100D02*
X276098D01*
X234950Y171450D02*
X241300Y165100D01*
X234950Y171450D02*
Y400050D01*
X276098Y165100D02*
X288798Y152400D01*
X279400Y193040D02*
X294640Y177800D01*
X415544Y35306D02*
X530606D01*
X349250Y101600D02*
X415544Y35306D01*
X330200Y101600D02*
X349250D01*
X442722Y39878D02*
X517437D01*
X533039Y55479D01*
Y111907D02*
X549300Y128168D01*
X533039Y55479D02*
Y111907D01*
X568300Y98400D02*
Y152400D01*
X625450Y123850D02*
Y152400D01*
X323850Y101600D02*
X330200D01*
X606450Y111150D02*
Y152400D01*
X530606Y35306D02*
X606450Y111150D01*
X601384Y235750D02*
X603250D01*
X304800Y387350D02*
X381000D01*
X303650Y386200D02*
X304800Y387350D01*
X303650Y368350D02*
Y386200D01*
X319902Y365492D02*
X320294Y365100D01*
X319902Y365492D02*
Y369708D01*
X317500Y372110D02*
X319902Y369708D01*
X317500Y372110D02*
Y377952D01*
X430609Y341709D02*
X431800Y342900D01*
X368300Y330200D02*
Y342900D01*
X649986Y324050D02*
X650186Y323850D01*
X300400Y365100D02*
X303650Y368350D01*
X542950Y203200D02*
Y241300D01*
X508000Y317500D02*
X561950Y263550D01*
Y241300D02*
Y263550D01*
X400050Y346100D02*
X413004D01*
X422504Y355600D01*
X436372D01*
X441706Y350266D01*
Y327406D02*
Y350266D01*
X431800Y317500D02*
X441706Y327406D01*
X549300Y128168D02*
Y152400D01*
X294640Y177800D02*
X330200D01*
X288798Y152400D02*
X330200D01*
X320294Y365100D02*
X321900D01*
D16*
X534900Y482400D02*
D03*
Y457400D02*
D03*
X595400D02*
D03*
Y482400D02*
D03*
X534900Y349050D02*
D03*
Y324050D02*
D03*
X595400D02*
D03*
Y349050D02*
D03*
D17*
X603250Y208750D02*
D03*
Y235750D02*
D03*
D18*
X337700Y241300D02*
D03*
X322700D02*
D03*
X325000Y304800D02*
D03*
X310000D02*
D03*
D19*
X542950Y203200D02*
D03*
X561950D02*
D03*
X568300Y152400D02*
D03*
X549300D02*
D03*
X396850Y311150D02*
D03*
X377850D02*
D03*
X561950Y241300D02*
D03*
X542950D02*
D03*
X625450Y152400D02*
D03*
X606450D02*
D03*
D20*
X300400Y365100D02*
D03*
D21*
X300400Y355600D02*
D03*
Y346100D02*
D03*
X321900D02*
D03*
Y355600D02*
D03*
Y365100D02*
D03*
D22*
X640080Y238760D02*
D03*
Y193160D02*
D03*
X639974Y215960D02*
D03*
D23*
X701080D02*
D03*
D24*
X381000Y398900D02*
D03*
Y413900D02*
D03*
X19050Y147200D02*
D03*
Y132200D02*
D03*
D25*
X368300Y365100D02*
D03*
Y346100D02*
D03*
X400050D02*
D03*
Y365100D02*
D03*
D47*
X344170Y364490D02*
X361950D01*
X342900Y363220D02*
X344170Y364490D01*
X325000Y241300D02*
Y304800D01*
X342900Y355600D02*
Y363220D01*
X355600Y292100D02*
X431800D01*
X342900Y304800D02*
X355600Y292100D01*
X325000Y304800D02*
X342900D01*
Y355600D01*
X321900D02*
X342900D01*
D48*
X626974Y238900D02*
X641350D01*
X574040Y320040D02*
Y330200D01*
X555190Y349050D02*
X574040Y330200D01*
X534900Y349050D02*
X555190D01*
X599440Y237694D02*
Y294640D01*
X574040Y320040D02*
X599440Y294640D01*
X561950Y203200D02*
X574040D01*
X584340Y192900D01*
X626402Y213360D02*
X635000D01*
X621792Y208750D02*
X626402Y213360D01*
X449580Y368300D02*
X450850Y369570D01*
X431800Y368300D02*
X449580D01*
X292100Y438150D02*
X355600D01*
X584340Y192900D02*
X641350D01*
X450850Y482600D02*
Y487896D01*
X527555Y479555D02*
Y482600D01*
X450850Y482600D02*
X453498Y485248D01*
X448074Y479823D02*
X450850Y482600D01*
X351905Y463550D02*
X355600D01*
X553950Y324050D02*
X574040Y303960D01*
Y218440D02*
Y303960D01*
Y218440D02*
X583730Y208750D01*
X603250D01*
X534900Y324050D02*
X553950D01*
X310000Y304800D02*
Y319920D01*
X300400Y329520D02*
X310000Y319920D01*
X300400Y329520D02*
Y346100D01*
X289560Y355600D02*
X300400D01*
X285750Y359410D02*
X289560Y355600D01*
X285750Y359410D02*
Y431800D01*
X292100Y438150D01*
X603250Y235750D02*
X623824D01*
X530400Y482400D02*
X534900D01*
X527555Y479555D02*
X530400Y482400D01*
X666750Y323850D02*
X673100D01*
X300400Y346100D02*
Y355600D01*
X417474Y368300D02*
X431800D01*
X414274Y365100D02*
X417474Y368300D01*
X400050Y365100D02*
X414274D01*
X623824Y235750D02*
X626974Y238900D01*
X603250Y208750D02*
X621792D01*
D49*
X639974Y215960D02*
X701080D01*
D50*
X354330Y411480D02*
X355600Y412750D01*
X314960Y411480D02*
X354330D01*
X450850Y487896D02*
X507784D01*
X513080Y482600D01*
X450850Y438150D02*
Y455168D01*
Y471170D02*
Y482600D01*
X443230Y463550D02*
X450850Y471170D01*
X355600Y463550D02*
X443230D01*
X513080Y482600D02*
X527555D01*
X325000Y221100D02*
Y241300D01*
X317500Y139700D02*
X349250D01*
X279400Y101600D02*
X317500Y139700D01*
X260350Y101600D02*
X279400D01*
X330200Y203200D02*
Y215900D01*
X325000Y221100D02*
X330200Y215900D01*
X355600Y146050D02*
Y196850D01*
X349250Y203200D02*
X355600Y196850D01*
X330200Y203200D02*
X349250D01*
Y139700D02*
X355600Y146050D01*
X453082Y457400D02*
X534900D01*
X450850Y455168D02*
X453082Y457400D01*
X22352Y147659D02*
Y223520D01*
X666750Y431800D02*
Y444500D01*
X595486Y349137D02*
X611832D01*
X596900Y349250D02*
Y458021D01*
X666750Y355600D02*
Y368300D01*
X611832Y349137D02*
X660286D01*
X666750Y355600D01*
X650186Y323850D02*
X666750D01*
X27432Y228600D02*
X55880D01*
X22352Y223520D02*
X27432Y228600D01*
X596900Y324050D02*
X649986D01*
X603250Y482400D02*
X628850D01*
X666750Y444500D01*
D51*
X381000Y438150D02*
X450850D01*
Y241300D02*
Y369570D01*
X355600Y438150D02*
X381000D01*
Y413900D02*
Y438150D01*
X228600Y57150D02*
Y148293D01*
Y57150D02*
X234950Y50800D01*
X82430Y152400D02*
X260350D01*
X63380Y133350D02*
X82430Y152400D01*
X450850Y437896D02*
Y438150D01*
Y370840D02*
Y437896D01*
Y67310D02*
Y241300D01*
X337700D02*
X450850D01*
X27326Y133350D02*
X63380D01*
X450850Y67310D02*
X467360Y50800D01*
X234950D02*
X330200D01*
X467360D02*
X508000D01*
D52*
X355600Y488950D02*
D03*
Y463550D02*
D03*
Y438150D02*
D03*
X314960Y487680D02*
D03*
Y462280D02*
D03*
Y436880D02*
D03*
D53*
X355600Y412750D02*
D03*
X314960Y411480D02*
D03*
D54*
X508000Y292100D02*
D03*
D55*
Y317500D02*
D03*
Y342900D02*
D03*
Y368300D02*
D03*
X431800D02*
D03*
Y342900D02*
D03*
Y317500D02*
D03*
Y292100D02*
D03*
D56*
X666750Y425450D02*
D03*
D57*
Y374650D02*
D03*
Y323850D02*
D03*
X559600Y88900D02*
D03*
X659600D02*
D03*
X609600Y38900D02*
D03*
D58*
Y88900D02*
D03*
X559600Y38900D02*
D03*
X659600D02*
D03*
D59*
X508000Y25400D02*
D03*
Y50800D02*
D03*
Y76200D02*
D03*
Y101600D02*
D03*
Y127000D02*
D03*
Y152400D02*
D03*
Y177800D02*
D03*
Y203200D02*
D03*
X330200Y25400D02*
D03*
Y50800D02*
D03*
Y76200D02*
D03*
Y101600D02*
D03*
Y127000D02*
D03*
Y152400D02*
D03*
Y177800D02*
D03*
X57150Y457200D02*
D03*
Y431800D02*
D03*
Y406400D02*
D03*
Y381000D02*
D03*
Y355600D02*
D03*
Y330200D02*
D03*
Y304800D02*
D03*
Y279400D02*
D03*
Y254000D02*
D03*
Y228600D02*
D03*
Y203200D02*
D03*
Y177800D02*
D03*
X260350Y457200D02*
D03*
Y431800D02*
D03*
Y406400D02*
D03*
Y381000D02*
D03*
Y355600D02*
D03*
Y330200D02*
D03*
Y304800D02*
D03*
Y279400D02*
D03*
Y254000D02*
D03*
Y228600D02*
D03*
Y203200D02*
D03*
Y177800D02*
D03*
Y152400D02*
D03*
Y127000D02*
D03*
Y101600D02*
D03*
D60*
X330200Y203200D02*
D03*
X260350Y76200D02*
D03*
D61*
X450850Y487896D02*
D03*
Y437896D02*
D03*
D62*
X139700Y342900D02*
D03*
X317500Y377952D02*
D03*
M02*
