G04*
G04 #@! TF.GenerationSoftware,Altium Limited,Altium Designer,19.1.8 (144)*
G04*
G04 Layer_Color=8388736*
%FSLAX44Y44*%
%MOMM*%
G71*
G01*
G75*
%ADD26R,2.0532X1.1532*%
%ADD27R,2.8032X1.3032*%
%ADD28R,1.3032X1.6032*%
%ADD29R,1.5032X1.7032*%
%ADD30R,1.6532X0.7532*%
%ADD31R,1.6532X0.7532*%
G04:AMPARAMS|DCode=32|XSize=1.7272mm|YSize=1.9812mm|CornerRadius=0.1854mm|HoleSize=0mm|Usage=FLASHONLY|Rotation=90.000|XOffset=0mm|YOffset=0mm|HoleType=Round|Shape=RoundedRectangle|*
%AMROUNDEDRECTD32*
21,1,1.7272,1.6104,0,0,90.0*
21,1,1.3564,1.9812,0,0,90.0*
1,1,0.3708,0.8052,0.6782*
1,1,0.3708,0.8052,-0.6782*
1,1,0.3708,-0.8052,-0.6782*
1,1,0.3708,-0.8052,0.6782*
%
%ADD32ROUNDEDRECTD32*%
G04:AMPARAMS|DCode=33|XSize=5.6532mm|YSize=6.8032mm|CornerRadius=0.1561mm|HoleSize=0mm|Usage=FLASHONLY|Rotation=90.000|XOffset=0mm|YOffset=0mm|HoleType=Round|Shape=RoundedRectangle|*
%AMROUNDEDRECTD33*
21,1,5.6532,6.4910,0,0,90.0*
21,1,5.3410,6.8032,0,0,90.0*
1,1,0.3122,3.2455,2.6705*
1,1,0.3122,3.2455,-2.6705*
1,1,0.3122,-3.2455,-2.6705*
1,1,0.3122,-3.2455,2.6705*
%
%ADD33ROUNDEDRECTD33*%
%ADD34R,1.6032X1.3032*%
%ADD35R,1.7032X1.5032*%
%ADD36C,1.7032*%
%ADD37R,1.7032X1.7032*%
%ADD38R,1.4032X1.4032*%
%ADD39C,1.4032*%
%ADD40R,2.1532X2.1532*%
%ADD41C,2.1532*%
%ADD42C,1.0032*%
%ADD43O,2.7432X1.4732*%
%ADD44R,2.7432X1.4732*%
%ADD45C,2.7032*%
%ADD46C,1.2192*%
D26*
X534900Y482400D02*
D03*
Y457400D02*
D03*
X595400D02*
D03*
Y482400D02*
D03*
X534900Y349050D02*
D03*
Y324050D02*
D03*
X595400D02*
D03*
Y349050D02*
D03*
D27*
X603250Y208750D02*
D03*
Y235750D02*
D03*
D28*
X337700Y241300D02*
D03*
X322700D02*
D03*
X325000Y304800D02*
D03*
X310000D02*
D03*
D29*
X542950Y203200D02*
D03*
X561950D02*
D03*
X568300Y152400D02*
D03*
X549300D02*
D03*
X396850Y311150D02*
D03*
X377850D02*
D03*
X561950Y241300D02*
D03*
X542950D02*
D03*
X625450Y152400D02*
D03*
X606450D02*
D03*
D30*
X300400Y365100D02*
D03*
D31*
X300400Y355600D02*
D03*
Y346100D02*
D03*
X321900D02*
D03*
Y355600D02*
D03*
Y365100D02*
D03*
D32*
X640080Y238760D02*
D03*
Y193160D02*
D03*
X639974Y215960D02*
D03*
D33*
X701080D02*
D03*
D34*
X381000Y398900D02*
D03*
Y413900D02*
D03*
X19050Y147200D02*
D03*
Y132200D02*
D03*
D35*
X368300Y365100D02*
D03*
Y346100D02*
D03*
X400050D02*
D03*
Y365100D02*
D03*
D36*
X355600Y488950D02*
D03*
Y463550D02*
D03*
Y438150D02*
D03*
X314960Y487680D02*
D03*
Y462280D02*
D03*
Y436880D02*
D03*
D37*
X355600Y412750D02*
D03*
X314960Y411480D02*
D03*
D38*
X508000Y292100D02*
D03*
D39*
Y317500D02*
D03*
Y342900D02*
D03*
Y368300D02*
D03*
X431800D02*
D03*
Y342900D02*
D03*
Y317500D02*
D03*
Y292100D02*
D03*
D40*
X666750Y425450D02*
D03*
D41*
Y374650D02*
D03*
Y323850D02*
D03*
X559600Y88900D02*
D03*
X659600D02*
D03*
X609600Y38900D02*
D03*
D42*
Y88900D02*
D03*
X559600Y38900D02*
D03*
X659600D02*
D03*
D43*
X508000Y25400D02*
D03*
Y50800D02*
D03*
Y76200D02*
D03*
Y101600D02*
D03*
Y127000D02*
D03*
Y152400D02*
D03*
Y177800D02*
D03*
Y203200D02*
D03*
X330200Y25400D02*
D03*
Y50800D02*
D03*
Y76200D02*
D03*
Y101600D02*
D03*
Y127000D02*
D03*
Y152400D02*
D03*
Y177800D02*
D03*
X57150Y457200D02*
D03*
Y431800D02*
D03*
Y406400D02*
D03*
Y381000D02*
D03*
Y355600D02*
D03*
Y330200D02*
D03*
Y304800D02*
D03*
Y279400D02*
D03*
Y254000D02*
D03*
Y228600D02*
D03*
Y203200D02*
D03*
Y177800D02*
D03*
X260350Y457200D02*
D03*
Y431800D02*
D03*
Y406400D02*
D03*
Y381000D02*
D03*
Y355600D02*
D03*
Y330200D02*
D03*
Y304800D02*
D03*
Y279400D02*
D03*
Y254000D02*
D03*
Y228600D02*
D03*
Y203200D02*
D03*
Y177800D02*
D03*
Y152400D02*
D03*
Y127000D02*
D03*
Y101600D02*
D03*
D44*
X330200Y203200D02*
D03*
X260350Y76200D02*
D03*
D45*
X450850Y487896D02*
D03*
Y437896D02*
D03*
D46*
X139700Y342900D02*
D03*
X317500Y377952D02*
D03*
M02*
