G04*
G04 #@! TF.GenerationSoftware,Altium Limited,Altium Designer,19.1.8 (144)*
G04*
G04 Layer_Color=16711935*
%FSLAX44Y44*%
%MOMM*%
G71*
G01*
G75*
%ADD36C,1.7032*%
%ADD37R,1.7032X1.7032*%
%ADD38R,1.4032X1.4032*%
%ADD39C,1.4032*%
%ADD40R,2.1532X2.1532*%
%ADD41C,2.1532*%
%ADD42C,1.0032*%
%ADD43O,2.7432X1.4732*%
%ADD44R,2.7432X1.4732*%
%ADD45C,2.7032*%
%ADD46C,1.2192*%
D36*
X355600Y488950D02*
D03*
Y463550D02*
D03*
Y438150D02*
D03*
X314960Y487680D02*
D03*
Y462280D02*
D03*
Y436880D02*
D03*
D37*
X355600Y412750D02*
D03*
X314960Y411480D02*
D03*
D38*
X508000Y292100D02*
D03*
D39*
Y317500D02*
D03*
Y342900D02*
D03*
Y368300D02*
D03*
X431800D02*
D03*
Y342900D02*
D03*
Y317500D02*
D03*
Y292100D02*
D03*
D40*
X666750Y425450D02*
D03*
D41*
Y374650D02*
D03*
Y323850D02*
D03*
X559600Y88900D02*
D03*
X659600D02*
D03*
X609600Y38900D02*
D03*
D42*
Y88900D02*
D03*
X559600Y38900D02*
D03*
X659600D02*
D03*
D43*
X508000Y25400D02*
D03*
Y50800D02*
D03*
Y76200D02*
D03*
Y101600D02*
D03*
Y127000D02*
D03*
Y152400D02*
D03*
Y177800D02*
D03*
Y203200D02*
D03*
X330200Y25400D02*
D03*
Y50800D02*
D03*
Y76200D02*
D03*
Y101600D02*
D03*
Y127000D02*
D03*
Y152400D02*
D03*
Y177800D02*
D03*
X57150Y457200D02*
D03*
Y431800D02*
D03*
Y406400D02*
D03*
Y381000D02*
D03*
Y355600D02*
D03*
Y330200D02*
D03*
Y304800D02*
D03*
Y279400D02*
D03*
Y254000D02*
D03*
Y228600D02*
D03*
Y203200D02*
D03*
Y177800D02*
D03*
X260350Y457200D02*
D03*
Y431800D02*
D03*
Y406400D02*
D03*
Y381000D02*
D03*
Y355600D02*
D03*
Y330200D02*
D03*
Y304800D02*
D03*
Y279400D02*
D03*
Y254000D02*
D03*
Y228600D02*
D03*
Y203200D02*
D03*
Y177800D02*
D03*
Y152400D02*
D03*
Y127000D02*
D03*
Y101600D02*
D03*
D44*
X330200Y203200D02*
D03*
X260350Y76200D02*
D03*
D45*
X450850Y487896D02*
D03*
Y437896D02*
D03*
D46*
X139700Y342900D02*
D03*
X317500Y377952D02*
D03*
M02*
