M48
;Layer_Color=9474304
;FILE_FORMAT=4:4
METRIC,LZ
;TYPE=PLATED
T1F00S00C0.3810
T2F00S00C0.6350
T3F00S00C0.9000
T4F00S00C1.0000
T5F00S00C1.3000
%
T01
X001905Y001143
X00185166Y0023368
X001143Y0032766
T02
X0008128Y0001524
Y0004064
Y0006604
Y0009144
Y0011684
Y0014224
X0023368
Y0011684
Y0009144
Y0006604
Y0004064
Y0001524
Y0016764
X0008128
T03
X0004064Y00381
Y004064
Y004318
Y004572
T04
X0006604Y00248666
Y00298666
T05
X0016256Y0047244
X0021336
X0011176
M30
