G04*
G04 #@! TF.GenerationSoftware,Altium Limited,Altium Designer,19.1.8 (144)*
G04*
G04 Layer_Color=65535*
%FSLAX44Y44*%
%MOMM*%
G71*
G01*
G75*
%ADD10C,0.2000*%
%ADD11C,0.2500*%
%ADD12C,0.2540*%
%ADD13C,0.1000*%
%ADD14C,0.2032*%
%ADD15C,0.1270*%
D10*
X78760Y472440D02*
G03*
X78760Y472440I-500J0D01*
G01*
X180020Y261140D02*
X186520D01*
X180020D02*
Y328140D01*
X186520D01*
X192610Y341500D02*
Y360000D01*
X189860Y363500D02*
X236860D01*
Y398500D01*
X189860D02*
X236860D01*
X189860Y363500D02*
Y398500D01*
X45900Y93350D02*
Y109850D01*
X30300D02*
X45900D01*
X30300Y93350D02*
Y109850D01*
Y93350D02*
X45900D01*
X14980Y153560D02*
Y171560D01*
X45980Y153560D02*
Y171560D01*
X45480Y153560D02*
X45980D01*
X45480Y171560D02*
X45980D01*
X14980Y153560D02*
X15480D01*
X14980Y171560D02*
X15480D01*
X194860Y214430D02*
X231860D01*
X194860D02*
Y252930D01*
X231860D01*
Y214430D02*
Y252930D01*
X235360Y214230D02*
X253110D01*
X80850Y341500D02*
Y360000D01*
X78100Y363500D02*
X125100D01*
Y398500D01*
X78100D02*
X125100D01*
X78100Y363500D02*
Y398500D01*
X169480Y374060D02*
Y382060D01*
X145480Y374060D02*
Y382060D01*
X138938Y214630D02*
X155702D01*
X157176Y216104D01*
Y229512D01*
X137414Y216154D02*
X138938Y214630D01*
X137414Y216154D02*
Y229662D01*
X27940Y472440D02*
X53340D01*
X27940Y368300D02*
X53340D01*
X27940D02*
Y472440D01*
X53340Y368300D02*
Y472440D01*
D11*
X163770Y327440D02*
G03*
X163770Y327440I-1250J0D01*
G01*
X55700Y90000D02*
G03*
X55700Y90000I-1250J0D01*
G01*
D12*
X163830Y2540D02*
G03*
X151130Y2540I-6350J0D01*
G01*
X126040Y274066D02*
G03*
X126040Y274066I-60000J0D01*
G01*
X128270Y1270D02*
X189230D01*
X128270Y-11430D02*
X138430Y-21590D01*
X128270Y-11430D02*
Y1270D01*
X189230Y-11430D02*
Y1270D01*
X179070Y-21590D02*
X189230Y-11430D01*
X138430Y-21590D02*
X179070D01*
X212090Y2540D02*
Y180340D01*
X102870D02*
X212090D01*
X102870Y2540D02*
Y180340D01*
Y2540D02*
X151130D01*
X163830D02*
X212090D01*
X36068Y298197D02*
X46228D01*
X41402Y293116D02*
Y303276D01*
D13*
X46230Y175560D02*
G03*
X46230Y175560I-500J0D01*
G01*
X86360Y431690D02*
Y513190D01*
Y431690D02*
X238760D01*
Y513190D01*
X86360D02*
X238760D01*
D14*
X139696Y144780D02*
X127000D01*
Y136316D01*
X135464Y129968D02*
Y125736D01*
X133348Y123620D01*
X127000D01*
Y129968D01*
X129116Y132084D01*
X131232Y129968D01*
Y123620D01*
X127000Y117272D02*
X137580D01*
X133348D01*
Y119388D01*
Y115156D01*
Y117272D01*
X137580D01*
X139696Y115156D01*
X127000Y108808D02*
Y104576D01*
Y106692D01*
X139696D01*
Y108808D01*
X127000Y91881D02*
Y96112D01*
X129116Y98228D01*
X133348D01*
X135464Y96112D01*
Y91881D01*
X133348Y89764D01*
X131232D01*
Y98228D01*
X135464Y85533D02*
X129116D01*
X127000Y83417D01*
Y77069D01*
X135464D01*
Y72837D02*
X127000D01*
X131232D01*
X133348Y70721D01*
X135464Y68605D01*
Y66489D01*
X262040Y192196D02*
X264156Y194312D01*
Y198544D01*
X262040Y200660D01*
X259924D01*
X257808Y198544D01*
Y194312D01*
X255692Y192196D01*
X253576D01*
X251460Y194312D01*
Y198544D01*
X253576Y200660D01*
X251460Y181616D02*
Y185848D01*
X253576Y187964D01*
X257808D01*
X259924Y185848D01*
Y181616D01*
X257808Y179500D01*
X255692D01*
Y187964D01*
X251460Y168920D02*
Y173152D01*
X253576Y175268D01*
X257808D01*
X259924Y173152D01*
Y168920D01*
X257808Y166804D01*
X255692D01*
Y175268D01*
X264156Y162572D02*
X251460D01*
Y156224D01*
X253576Y154108D01*
X255692D01*
X257808D01*
X259924Y156224D01*
Y162572D01*
Y149876D02*
X253576D01*
X251460Y147760D01*
Y141412D01*
X259924D01*
Y137181D02*
X251460D01*
X255692D01*
X257808Y135065D01*
X259924Y132949D01*
Y130833D01*
X247228Y120253D02*
Y118137D01*
X249344Y116021D01*
X259924D01*
Y122369D01*
X257808Y124485D01*
X253576D01*
X251460Y122369D01*
Y116021D01*
X262040Y99093D02*
X264156Y96977D01*
Y92745D01*
X262040Y90629D01*
X259924D01*
X257808Y92745D01*
Y94861D01*
Y92745D01*
X255692Y90629D01*
X253576D01*
X251460Y92745D01*
Y96977D01*
X253576Y99093D01*
X264156Y86397D02*
X251460D01*
X255692Y82165D01*
X251460Y77933D01*
X264156D01*
X251460Y73701D02*
X259924D01*
X264156Y69469D01*
X259924Y65237D01*
X251460D01*
X257808D01*
Y73701D01*
X251460Y48309D02*
X264156D01*
X259924Y44077D01*
X264156Y39845D01*
X251460D01*
Y35614D02*
Y31381D01*
Y33498D01*
X259924D01*
Y35614D01*
X251460Y25034D02*
X259924D01*
Y18686D01*
X257808Y16570D01*
X251460D01*
Y12338D02*
Y8106D01*
Y10222D01*
X259924D01*
Y12338D01*
X128691Y35557D02*
X121920D01*
Y25400D01*
X128691D01*
X121920Y30478D02*
X125306D01*
X138848Y33864D02*
X137155Y35557D01*
X133770D01*
X132077Y33864D01*
Y32171D01*
X133770Y30478D01*
X137155D01*
X138848Y28786D01*
Y27093D01*
X137155Y25400D01*
X133770D01*
X132077Y27093D01*
X142233Y25400D02*
Y35557D01*
X147312D01*
X149005Y33864D01*
Y30478D01*
X147312Y28786D01*
X142233D01*
X152390Y33864D02*
X154083Y35557D01*
X157469D01*
X159161Y33864D01*
Y32171D01*
X157469Y30478D01*
X155776D01*
X157469D01*
X159161Y28786D01*
Y27093D01*
X157469Y25400D01*
X154083D01*
X152390Y27093D01*
X169318Y25400D02*
X162547D01*
X169318Y32171D01*
Y33864D01*
X167625Y35557D01*
X164240D01*
X162547Y33864D01*
X179475D02*
X177782Y35557D01*
X174396D01*
X172704Y33864D01*
Y32171D01*
X174396Y30478D01*
X177782D01*
X179475Y28786D01*
Y27093D01*
X177782Y25400D01*
X174396D01*
X172704Y27093D01*
X182860Y33864D02*
X184553Y35557D01*
X187939D01*
X189632Y33864D01*
Y32171D01*
X187939Y30478D01*
X186246D01*
X187939D01*
X189632Y28786D01*
Y27093D01*
X187939Y25400D01*
X184553D01*
X182860Y27093D01*
X226909Y519856D02*
X228602Y518163D01*
X231987D01*
X233680Y519856D01*
Y521549D01*
X231987Y523242D01*
X228602D01*
X226909Y524934D01*
Y526627D01*
X228602Y528320D01*
X231987D01*
X233680Y526627D01*
X223523Y528320D02*
X220138D01*
X221831D01*
Y521549D01*
X223523D01*
X211674Y531706D02*
X209981D01*
X208288Y530013D01*
Y521549D01*
X213367D01*
X215059Y523242D01*
Y526627D01*
X213367Y528320D01*
X208288D01*
X186269D02*
X193040D01*
X186269Y521549D01*
Y519856D01*
X187962Y518163D01*
X191347D01*
X193040Y519856D01*
X177805Y528320D02*
Y518163D01*
X182883Y523242D01*
X176112D01*
X172727Y518163D02*
Y524934D01*
X169341Y528320D01*
X165955Y524934D01*
Y518163D01*
X162570Y528320D02*
Y521549D01*
X159184Y518163D01*
X155799Y521549D01*
Y528320D01*
Y523242D01*
X162570D01*
X145642Y519856D02*
X147335Y518163D01*
X150720D01*
X152413Y519856D01*
Y526627D01*
X150720Y528320D01*
X147335D01*
X145642Y526627D01*
X125309Y528320D02*
X132080D01*
X125309Y521549D01*
Y519856D01*
X127002Y518163D01*
X130387D01*
X132080Y519856D01*
X116845Y528320D02*
Y518163D01*
X121923Y523242D01*
X115152D01*
X111767Y518163D02*
Y524934D01*
X108381Y528320D01*
X104995Y524934D01*
Y518163D01*
X101610Y528320D02*
Y521549D01*
X98224Y518163D01*
X94839Y521549D01*
Y528320D01*
Y523242D01*
X101610D01*
X84682Y519856D02*
X86375Y518163D01*
X89760D01*
X91453Y519856D01*
Y526627D01*
X89760Y528320D01*
X86375D01*
X84682Y526627D01*
X81296Y523242D02*
X74525D01*
X64369Y519856D02*
X66061Y518163D01*
X69447D01*
X71140Y519856D01*
Y526627D01*
X69447Y528320D01*
X66061D01*
X64369Y526627D01*
Y523242D01*
X67754D01*
X261616Y528320D02*
X253152D01*
X248920Y524088D01*
X253152Y519856D01*
X261616D01*
X248920Y509276D02*
Y513508D01*
X251036Y515624D01*
X255268D01*
X257384Y513508D01*
Y509276D01*
X255268Y507160D01*
X253152D01*
Y515624D01*
X257384Y502928D02*
X248920D01*
X253152D01*
X255268Y500812D01*
X257384Y498696D01*
Y496580D01*
X248920Y490232D02*
Y486000D01*
Y488116D01*
X261616D01*
X259500Y490232D01*
X257384Y477537D02*
Y473304D01*
X255268Y471189D01*
X248920D01*
Y477537D01*
X251036Y479652D01*
X253152Y477537D01*
Y471189D01*
X248920Y454261D02*
X257384D01*
X261616Y450029D01*
X257384Y445797D01*
X248920D01*
X255268D01*
Y454261D01*
X257384Y441565D02*
X251036D01*
X248920Y439449D01*
Y433101D01*
X257384D01*
X244688Y424637D02*
Y422521D01*
X246804Y420405D01*
X257384D01*
Y426753D01*
X255268Y428869D01*
X251036D01*
X248920Y426753D01*
Y420405D01*
X255268Y416173D02*
Y407709D01*
X248920Y395013D02*
Y403477D01*
X257384Y395013D01*
X259500D01*
X261616Y397129D01*
Y401361D01*
X259500Y403477D01*
Y390781D02*
X261616Y388665D01*
Y384433D01*
X259500Y382317D01*
X257384D01*
X255268Y384433D01*
Y386549D01*
Y384433D01*
X253152Y382317D01*
X251036D01*
X248920Y384433D01*
Y388665D01*
X251036Y390781D01*
X170176Y144780D02*
X157480D01*
Y138432D01*
X159596Y136316D01*
X168060D01*
X170176Y138432D01*
Y144780D01*
X157480Y125736D02*
Y129968D01*
X159596Y132084D01*
X163828D01*
X165944Y129968D01*
Y125736D01*
X163828Y123620D01*
X161712D01*
Y132084D01*
X157480Y119388D02*
Y113040D01*
X159596Y110924D01*
X161712Y113040D01*
Y117272D01*
X163828Y119388D01*
X165944Y117272D01*
Y110924D01*
X157480Y106692D02*
Y102460D01*
Y104576D01*
X165944D01*
Y106692D01*
X153248Y91881D02*
Y89764D01*
X155364Y87648D01*
X165944D01*
Y93996D01*
X163828Y96112D01*
X159596D01*
X157480Y93996D01*
Y87648D01*
Y83417D02*
X165944D01*
Y77069D01*
X163828Y74953D01*
X157480D01*
Y70721D02*
Y64373D01*
X159596Y62257D01*
X161712Y64373D01*
Y68605D01*
X163828Y70721D01*
X165944Y68605D01*
Y62257D01*
D15*
X71118Y490218D02*
X68579D01*
X69849D01*
Y483870D01*
X68579Y482600D01*
X67310D01*
X66040Y483870D01*
X73657Y482600D02*
X76197D01*
X74927D01*
Y490218D01*
X73657Y488948D01*
X137160Y322578D02*
Y316230D01*
X138430Y314960D01*
X140969D01*
X142238Y316230D01*
Y322578D01*
X148586Y314960D02*
Y322578D01*
X144777Y318769D01*
X149856D01*
X251458Y355600D02*
X243840D01*
Y351791D01*
X245110Y350522D01*
X246379D01*
X247649Y351791D01*
Y355600D01*
Y351791D01*
X248918Y350522D01*
X250188D01*
X251458Y351791D01*
Y355600D01*
X243840Y347982D02*
X251458D01*
Y344174D01*
X250188Y342904D01*
X247649D01*
X246379Y344174D01*
Y347982D01*
Y345443D02*
X243840Y342904D01*
Y340365D02*
Y337826D01*
Y339095D01*
X251458D01*
X250188Y340365D01*
X142240Y167640D02*
Y175257D01*
X146049D01*
X147318Y173988D01*
Y171449D01*
X146049Y170179D01*
X142240D01*
X144779D02*
X147318Y167640D01*
X149858Y173988D02*
X151127Y175257D01*
X153666D01*
X154936Y173988D01*
Y172718D01*
X153666Y171449D01*
X152397D01*
X153666D01*
X154936Y170179D01*
Y168910D01*
X153666Y167640D01*
X151127D01*
X149858Y168910D01*
X218440Y193040D02*
Y200658D01*
X222249D01*
X223518Y199388D01*
Y196849D01*
X222249Y195579D01*
X218440D01*
X220979D02*
X223518Y193040D01*
X226057D02*
X228597D01*
X227327D01*
Y200658D01*
X226057Y199388D01*
X190500Y15237D02*
Y8890D01*
X191770Y7620D01*
X194309D01*
X195578Y8890D01*
Y15237D01*
X198118Y13968D02*
X199387Y15237D01*
X201926D01*
X203196Y13968D01*
Y12698D01*
X201926Y11429D01*
X200657D01*
X201926D01*
X203196Y10159D01*
Y8890D01*
X201926Y7620D01*
X199387D01*
X198118Y8890D01*
X167640Y-12697D02*
Y-6350D01*
X166370Y-5080D01*
X163831D01*
X162562Y-6350D01*
Y-12697D01*
X154944Y-11428D02*
X156214Y-12697D01*
X158753D01*
X160023Y-11428D01*
Y-10158D01*
X158753Y-8889D01*
X156214D01*
X154944Y-7619D01*
Y-6350D01*
X156214Y-5080D01*
X158753D01*
X160023Y-6350D01*
X152405Y-12697D02*
Y-5080D01*
X148596D01*
X147327Y-6350D01*
Y-7619D01*
X148596Y-8889D01*
X152405D01*
X148596D01*
X147327Y-10158D01*
Y-11428D01*
X148596Y-12697D01*
X152405D01*
X12697Y106680D02*
X5080D01*
Y102871D01*
X6350Y101602D01*
X11428D01*
X12697Y102871D01*
Y106680D01*
X5080Y93984D02*
Y99062D01*
X10158Y93984D01*
X11428D01*
X12697Y95254D01*
Y97793D01*
X11428Y99062D01*
X50800Y180338D02*
Y173990D01*
X52070Y172720D01*
X54609D01*
X55878Y173990D01*
Y180338D01*
X58418Y172720D02*
X60957D01*
X59687D01*
Y180338D01*
X58418Y179068D01*
X139698Y355600D02*
X132080D01*
Y351791D01*
X133350Y350522D01*
X134619D01*
X135889Y351791D01*
Y355600D01*
Y351791D01*
X137158Y350522D01*
X138428D01*
X139698Y351791D01*
Y355600D01*
X132080Y347982D02*
X139698D01*
Y344174D01*
X138428Y342904D01*
X135889D01*
X134619Y344174D01*
Y347982D01*
Y345443D02*
X132080Y342904D01*
Y335287D02*
Y340365D01*
X137158Y335287D01*
X138428D01*
X139698Y336556D01*
Y339095D01*
X138428Y340365D01*
X154938Y412748D02*
X153669Y414017D01*
X151130D01*
X149860Y412748D01*
Y407670D01*
X151130Y406400D01*
X153669D01*
X154938Y407670D01*
X157478Y412748D02*
X158747Y414017D01*
X161286D01*
X162556Y412748D01*
Y411478D01*
X161286Y410209D01*
X160017D01*
X161286D01*
X162556Y408939D01*
Y407670D01*
X161286Y406400D01*
X158747D01*
X157478Y407670D01*
X11428Y76202D02*
X12697Y77471D01*
Y80010D01*
X11428Y81280D01*
X6350D01*
X5080Y80010D01*
Y77471D01*
X6350Y76202D01*
X12697Y68584D02*
Y73663D01*
X8889D01*
X10158Y71123D01*
Y69854D01*
X8889Y68584D01*
X6350D01*
X5080Y69854D01*
Y72393D01*
X6350Y73663D01*
X134618Y236220D02*
X127000D01*
Y232411D01*
X128270Y231142D01*
X133348D01*
X134618Y232411D01*
Y236220D01*
X127000Y228603D02*
Y226063D01*
Y227333D01*
X134618D01*
X133348Y228603D01*
X261618Y243840D02*
Y241301D01*
Y242570D01*
X254000D01*
Y243840D01*
Y241301D01*
X260348Y232414D02*
X261618Y233683D01*
Y236222D01*
X260348Y237492D01*
X255270D01*
X254000Y236222D01*
Y233683D01*
X255270Y232414D01*
X254000Y229874D02*
Y227335D01*
Y228605D01*
X261618D01*
X260348Y229874D01*
X27940Y363218D02*
X30479D01*
X29210D01*
Y355600D01*
X27940D01*
X30479D01*
X39366Y361948D02*
X38097Y363218D01*
X35557D01*
X34288Y361948D01*
Y356870D01*
X35557Y355600D01*
X38097D01*
X39366Y356870D01*
X41905Y361948D02*
X43175Y363218D01*
X45714D01*
X46984Y361948D01*
Y360678D01*
X45714Y359409D01*
X44445D01*
X45714D01*
X46984Y358139D01*
Y356870D01*
X45714Y355600D01*
X43175D01*
X41905Y356870D01*
X26670Y334009D02*
X25401Y335279D01*
X22862D01*
X21592Y334009D01*
Y328931D01*
X22862Y327661D01*
X25401D01*
X26670Y328931D01*
X33018Y327661D02*
Y335279D01*
X29210Y331470D01*
X34288D01*
X63500Y193040D02*
Y200658D01*
X67309D01*
X68578Y199388D01*
Y196849D01*
X67309Y195579D01*
X63500D01*
X66039D02*
X68578Y193040D01*
X76196D02*
X71118D01*
X76196Y198118D01*
Y199388D01*
X74926Y200658D01*
X72387D01*
X71118Y199388D01*
X11428Y198122D02*
X12697Y199391D01*
Y201930D01*
X11428Y203200D01*
X6350D01*
X5080Y201930D01*
Y199391D01*
X6350Y198122D01*
X5080Y190504D02*
Y195583D01*
X10158Y190504D01*
X11428D01*
X12697Y191774D01*
Y194313D01*
X11428Y195583D01*
Y127002D02*
X12697Y128271D01*
Y130810D01*
X11428Y132080D01*
X6350D01*
X5080Y130810D01*
Y128271D01*
X6350Y127002D01*
X5080Y124462D02*
Y121923D01*
Y123193D01*
X12697D01*
X11428Y124462D01*
M02*
