G04*
G04 #@! TF.GenerationSoftware,Altium Limited,Altium Designer,19.1.8 (144)*
G04*
G04 Layer_Physical_Order=2*
G04 Layer_Color=16711680*
%FSLAX44Y44*%
%MOMM*%
G71*
G01*
G75*
%ADD15C,0.2032*%
%ADD48C,0.6350*%
%ADD49C,0.5080*%
%ADD50R,1.2000X1.2000*%
%ADD51C,1.2000*%
%ADD52R,1.9500X1.9500*%
%ADD53C,1.9500*%
%ADD54C,0.8000*%
%ADD55C,1.5000*%
%ADD56R,1.5000X1.5000*%
%ADD57O,2.5400X1.2700*%
%ADD58R,2.5400X1.2700*%
%ADD59C,2.5000*%
%ADD60C,0.7620*%
D15*
X406400Y203200D02*
X508000D01*
X315722Y293878D02*
X406400Y203200D01*
X139700Y342900D02*
X285750D01*
X316431Y376883D02*
X317500Y377952D01*
X316431Y373581D02*
Y376883D01*
X285750Y342900D02*
X316431Y373581D01*
X57150Y304800D02*
X189230D01*
X200152Y293878D01*
X315722D01*
D48*
X590550Y57150D02*
X609200Y38500D01*
X533400Y57150D02*
X590550D01*
X527050Y50800D02*
X533400Y57150D01*
X514350Y50800D02*
X527050D01*
X330200D02*
X495300D01*
D49*
X355600Y412750D02*
Y412844D01*
Y382198D02*
Y412750D01*
X38100Y228600D02*
X57150D01*
X25400Y241300D02*
X38100Y228600D01*
X25400Y241300D02*
Y311150D01*
X31750Y317500D01*
X290902D01*
X355600Y382198D01*
D50*
X508000Y292100D02*
D03*
D51*
Y317500D02*
D03*
Y342900D02*
D03*
Y368300D02*
D03*
X431800D02*
D03*
Y342900D02*
D03*
Y317500D02*
D03*
Y292100D02*
D03*
D52*
X666750Y425450D02*
D03*
D53*
Y374650D02*
D03*
Y323850D02*
D03*
X559600Y88900D02*
D03*
X659600D02*
D03*
X609600Y38900D02*
D03*
D54*
Y88900D02*
D03*
X559600Y38900D02*
D03*
X659600D02*
D03*
D55*
X355600Y488950D02*
D03*
Y463550D02*
D03*
Y438150D02*
D03*
D56*
Y412750D02*
D03*
D57*
X508000Y25400D02*
D03*
Y50800D02*
D03*
Y76200D02*
D03*
Y101600D02*
D03*
Y127000D02*
D03*
Y152400D02*
D03*
Y177800D02*
D03*
Y203200D02*
D03*
X330200Y25400D02*
D03*
Y50800D02*
D03*
Y76200D02*
D03*
Y101600D02*
D03*
Y127000D02*
D03*
Y152400D02*
D03*
Y177800D02*
D03*
X57150Y457200D02*
D03*
Y431800D02*
D03*
Y406400D02*
D03*
Y381000D02*
D03*
Y355600D02*
D03*
Y330200D02*
D03*
Y304800D02*
D03*
Y279400D02*
D03*
Y254000D02*
D03*
Y228600D02*
D03*
Y203200D02*
D03*
Y177800D02*
D03*
X260350Y457200D02*
D03*
Y431800D02*
D03*
Y406400D02*
D03*
Y381000D02*
D03*
Y355600D02*
D03*
Y330200D02*
D03*
Y304800D02*
D03*
Y279400D02*
D03*
Y254000D02*
D03*
Y228600D02*
D03*
Y203200D02*
D03*
Y177800D02*
D03*
Y152400D02*
D03*
Y127000D02*
D03*
Y101600D02*
D03*
D58*
X330200Y203200D02*
D03*
X260350Y76200D02*
D03*
D59*
X450850Y487896D02*
D03*
Y437896D02*
D03*
D60*
X139700Y342900D02*
D03*
X317500Y377952D02*
D03*
M02*
