M48
;Layer_Color=9474304
;FILE_FORMAT=4:4
METRIC,LZ
;TYPE=PLATED
T1F00S00C0.2540
T2F00S00C0.6350
T3F00S00C0.8000
T4F00S00C0.9000
T5F00S00C1.0000
T6F00S00C1.3000
;TYPE=NON_PLATED
T7F00S00C1.6000
%
T01
X003175Y00377952
X001397Y003429
T02
X0024765Y000762
Y001016
Y00127
X003175
Y001016
Y000762
Y000508
Y000254
X004953
Y000508
Y000762
Y001016
Y00127
Y001524
Y001778
Y002032
X003175
Y001778
Y001524
X0024765
Y001778
Y002032
Y002286
Y00254
Y002794
Y003048
Y003302
Y003556
Y00381
Y004064
Y004318
Y004572
X0004445
Y004318
Y004064
Y00381
Y003556
Y003302
Y003048
Y002794
Y00254
Y002286
Y002032
Y001778
T03
X004318Y002921
Y003175
Y003429
Y003683
X00508
Y003429
Y003175
Y002921
T04
X003556Y0041275
Y0043815
Y0046355
Y0048895
T05
X0045085Y00437896
Y00487896
T06
X005969Y000389
X006469Y000889
X005469
X0066675Y0032385
Y0037465
Y0042545
T07
X005469Y000389
X006469
X005969Y000889
M30
