G04*
G04 #@! TF.GenerationSoftware,Altium Limited,Altium Designer,22.5.1 (42)*
G04*
G04 Layer_Color=65535*
%FSLAX44Y44*%
%MOMM*%
G71*
G04*
G04 #@! TF.SameCoordinates,8346B9DA-9F02-4375-9B92-E9104D78EC3E*
G04*
G04*
G04 #@! TF.FilePolarity,Positive*
G04*
G01*
G75*
%ADD10C,0.2000*%
%ADD11C,0.1000*%
%ADD12C,0.2540*%
%ADD13C,0.1270*%
%ADD14C,0.2032*%
D10*
X667250Y458950D02*
G03*
X667250Y458950I-500J0D01*
G01*
X596900Y-48100D02*
G03*
X596900Y-50100I0J-1000D01*
G01*
D02*
G03*
X596900Y-48100I0J1000D01*
G01*
X525650Y490650D02*
X544150D01*
X547650Y446400D02*
Y493400D01*
Y446400D02*
X582650D01*
Y493400D01*
X547650D02*
X582650D01*
X615250Y218250D02*
Y226250D01*
X591250Y218250D02*
Y226250D01*
X533400Y194818D02*
Y211582D01*
Y194818D02*
X534874Y193344D01*
X548282D01*
X533400Y211582D02*
X534924Y213106D01*
X548432D01*
X435400Y380500D02*
X504400D01*
X435400Y279900D02*
X514000D01*
X639200Y247150D02*
X656700D01*
X661950Y183400D02*
Y248400D01*
Y183400D02*
X696950D01*
Y248400D01*
X661950D02*
X696950D01*
X302150Y340100D02*
X320150D01*
X302150Y371100D02*
X320150D01*
Y370600D02*
Y371100D01*
X302150Y370600D02*
Y371100D01*
X320150Y340100D02*
Y340600D01*
X302150Y340100D02*
Y340600D01*
X342900Y504190D02*
X368300D01*
X342900Y400050D02*
X368300D01*
X342900D02*
Y504190D01*
X368300Y400050D02*
Y504190D01*
X547650Y360050D02*
X582650D01*
Y313050D02*
Y360050D01*
X547650Y313050D02*
X582650D01*
X547650D02*
Y360050D01*
X525650Y357300D02*
X544150D01*
D11*
X298650Y370850D02*
G03*
X298650Y370850I-500J0D01*
G01*
X626000Y450850D02*
X707500D01*
X626000Y298450D02*
Y450850D01*
Y298450D02*
X707500D01*
Y450850D01*
X536900Y8900D02*
X656900D01*
X536900Y114900D02*
X656900D01*
D12*
X400050Y215900D02*
G03*
X412750Y215900I6350J0D01*
G01*
X152400Y9800D02*
G03*
X139700Y9800I-6350J360D01*
G01*
X510850Y463296D02*
G03*
X510850Y463296I-60000J0D01*
G01*
X339090Y215900D02*
X400050D01*
X412750D02*
X473710D01*
Y12700D02*
Y215900D01*
X339090Y12700D02*
X473710D01*
X339090D02*
Y215900D01*
X66040Y495300D02*
X90805D01*
X183515D02*
X226060D01*
X172720Y10160D02*
X226060D01*
X66040D02*
X138430D01*
X66040D02*
Y495300D01*
X90805D02*
X183515D01*
X226060Y10160D02*
Y495300D01*
X153670Y10160D02*
X172720D01*
X115570Y22860D02*
X176530D01*
X166370Y45720D02*
X176530Y35560D01*
Y22860D02*
Y35560D01*
X115570Y22860D02*
Y35560D01*
X125730Y45720D01*
X166370D01*
X420878Y487426D02*
X431038D01*
X426212Y482346D02*
Y492506D01*
D13*
X527050Y439417D02*
Y431800D01*
X530859D01*
X532128Y433070D01*
Y434339D01*
X530859Y435609D01*
X527050D01*
X530859D01*
X532128Y436878D01*
Y438148D01*
X530859Y439417D01*
X527050D01*
X534668Y431800D02*
Y439417D01*
X538476D01*
X539746Y438148D01*
Y435609D01*
X538476Y434339D01*
X534668D01*
X537207D02*
X539746Y431800D01*
X547363D02*
X542285D01*
X547363Y436878D01*
Y438148D01*
X546094Y439417D01*
X543555D01*
X542285Y438148D01*
X608328Y253998D02*
X607059Y255268D01*
X604520D01*
X603250Y253998D01*
Y248920D01*
X604520Y247650D01*
X607059D01*
X608328Y248920D01*
X610868Y253998D02*
X612137Y255268D01*
X614676D01*
X615946Y253998D01*
Y252728D01*
X614676Y251459D01*
X613407D01*
X614676D01*
X615946Y250189D01*
Y248920D01*
X614676Y247650D01*
X612137D01*
X610868Y248920D01*
X297178Y260348D02*
X295909Y261618D01*
X293370D01*
X292100Y260348D01*
Y255270D01*
X293370Y254000D01*
X295909D01*
X297178Y255270D01*
X304796Y261618D02*
X302257Y260348D01*
X299718Y257809D01*
Y255270D01*
X300987Y254000D01*
X303526D01*
X304796Y255270D01*
Y256539D01*
X303526Y257809D01*
X299718D01*
X552450Y223517D02*
Y215900D01*
X556259D01*
X557528Y217170D01*
Y222248D01*
X556259Y223517D01*
X552450D01*
X560067Y215900D02*
X562607D01*
X561337D01*
Y223517D01*
X560067Y222248D01*
X508000Y274317D02*
X510539D01*
X509270D01*
Y266700D01*
X508000D01*
X510539D01*
X519426Y273048D02*
X518157Y274317D01*
X515617D01*
X514348Y273048D01*
Y267970D01*
X515617Y266700D01*
X518157D01*
X519426Y267970D01*
X521965Y266700D02*
X524505D01*
X523235D01*
Y274317D01*
X521965Y273048D01*
X637794Y266189D02*
X640333D01*
X639064D01*
Y258572D01*
X637794D01*
X640333D01*
X649220Y264920D02*
X647951Y266189D01*
X645412D01*
X644142Y264920D01*
Y259842D01*
X645412Y258572D01*
X647951D01*
X649220Y259842D01*
X656838Y258572D02*
X651759D01*
X656838Y263650D01*
Y264920D01*
X655568Y266189D01*
X653029D01*
X651759Y264920D01*
X622044Y482090D02*
X619505D01*
X620775D01*
Y475742D01*
X619505Y474472D01*
X618236D01*
X616966Y475742D01*
X624584Y474472D02*
X627123D01*
X625853D01*
Y482090D01*
X624584Y480820D01*
X532636Y139444D02*
X530097D01*
X531367D01*
Y133096D01*
X530097Y131826D01*
X528828D01*
X527558Y133096D01*
X540254Y131826D02*
X535176D01*
X540254Y136904D01*
Y138174D01*
X538984Y139444D01*
X536445D01*
X535176Y138174D01*
X543052Y167386D02*
Y175004D01*
X546861D01*
X548130Y173734D01*
Y171195D01*
X546861Y169925D01*
X543052D01*
X545591D02*
X548130Y167386D01*
X550670Y173734D02*
X551939Y175004D01*
X554478D01*
X555748Y173734D01*
Y172464D01*
X554478Y171195D01*
X555748Y169925D01*
Y168656D01*
X554478Y167386D01*
X551939D01*
X550670Y168656D01*
Y169925D01*
X551939Y171195D01*
X550670Y172464D01*
Y173734D01*
X551939Y171195D02*
X554478D01*
X293370Y386077D02*
Y379730D01*
X294640Y378460D01*
X297179D01*
X298448Y379730D01*
Y386077D01*
X300987Y378460D02*
X303527D01*
X302257D01*
Y386077D01*
X300987Y384808D01*
X343154Y519174D02*
X345693D01*
X344424D01*
Y511556D01*
X343154D01*
X345693D01*
X354580Y517904D02*
X353311Y519174D01*
X350771D01*
X349502Y517904D01*
Y512826D01*
X350771Y511556D01*
X353311D01*
X354580Y512826D01*
X357119Y517904D02*
X358389Y519174D01*
X360928D01*
X362198Y517904D01*
Y516634D01*
X360928Y515365D01*
X359659D01*
X360928D01*
X362198Y514095D01*
Y512826D01*
X360928Y511556D01*
X358389D01*
X357119Y512826D01*
X304800Y223517D02*
Y217170D01*
X306070Y215900D01*
X308609D01*
X309878Y217170D01*
Y223517D01*
X317496Y215900D02*
X312418D01*
X317496Y220978D01*
Y222248D01*
X316226Y223517D01*
X313687D01*
X312418Y222248D01*
X234950Y45718D02*
Y39370D01*
X236220Y38100D01*
X238759D01*
X240028Y39370D01*
Y45718D01*
X242568Y44448D02*
X243837Y45718D01*
X246376D01*
X247646Y44448D01*
Y43178D01*
X246376Y41909D01*
X245107D01*
X246376D01*
X247646Y40639D01*
Y39370D01*
X246376Y38100D01*
X243837D01*
X242568Y39370D01*
X156210Y27943D02*
Y34290D01*
X154940Y35560D01*
X152401D01*
X151132Y34290D01*
Y27943D01*
X143514Y29212D02*
X144784Y27943D01*
X147323D01*
X148593Y29212D01*
Y30482D01*
X147323Y31751D01*
X144784D01*
X143514Y33021D01*
Y34290D01*
X144784Y35560D01*
X147323D01*
X148593Y34290D01*
X140975Y27943D02*
Y35560D01*
X137166D01*
X135897Y34290D01*
Y33021D01*
X137166Y31751D01*
X140975D01*
X137166D01*
X135897Y30482D01*
Y29212D01*
X137166Y27943D01*
X140975D01*
X411480Y523239D02*
X410211Y524509D01*
X407672D01*
X406402Y523239D01*
Y518161D01*
X407672Y516891D01*
X410211D01*
X411480Y518161D01*
X417828Y516891D02*
Y524509D01*
X414020Y520700D01*
X419098D01*
X17778Y119498D02*
X16509Y120767D01*
X13970D01*
X12700Y119498D01*
Y114419D01*
X13970Y113150D01*
X16509D01*
X17778Y114419D01*
X25396Y120767D02*
X20317D01*
Y116959D01*
X22857Y118228D01*
X24126D01*
X25396Y116959D01*
Y114419D01*
X24126Y113150D01*
X21587D01*
X20317Y114419D01*
X322578Y323848D02*
X321309Y325117D01*
X318770D01*
X317500Y323848D01*
Y318770D01*
X318770Y317500D01*
X321309D01*
X322578Y318770D01*
X325117Y317500D02*
X327657D01*
X326387D01*
Y325117D01*
X325117Y323848D01*
X393700Y323850D02*
Y331468D01*
X397509D01*
X398778Y330198D01*
Y327659D01*
X397509Y326389D01*
X393700D01*
X396239D02*
X398778Y323850D01*
X406396D02*
X401317D01*
X406396Y328928D01*
Y330198D01*
X405126Y331468D01*
X402587D01*
X401317Y330198D01*
X600202Y167386D02*
Y175004D01*
X604011D01*
X605280Y173734D01*
Y171195D01*
X604011Y169925D01*
X600202D01*
X602741D02*
X605280Y167386D01*
X612898Y175004D02*
X607820D01*
Y171195D01*
X610359Y172464D01*
X611628D01*
X612898Y171195D01*
Y168656D01*
X611628Y167386D01*
X609089D01*
X607820Y168656D01*
X392684Y378968D02*
Y386586D01*
X396493D01*
X397762Y385316D01*
Y382777D01*
X396493Y381507D01*
X392684D01*
X395223D02*
X397762Y378968D01*
X404110D02*
Y386586D01*
X400302Y382777D01*
X405380D01*
X536702Y256286D02*
Y263904D01*
X540511D01*
X541780Y262634D01*
Y260095D01*
X540511Y258825D01*
X536702D01*
X539241D02*
X541780Y256286D01*
X544319Y262634D02*
X545589Y263904D01*
X548128D01*
X549398Y262634D01*
Y261364D01*
X548128Y260095D01*
X546859D01*
X548128D01*
X549398Y258825D01*
Y257556D01*
X548128Y256286D01*
X545589D01*
X544319Y257556D01*
X360934Y378968D02*
Y386586D01*
X364743D01*
X366012Y385316D01*
Y382777D01*
X364743Y381507D01*
X360934D01*
X363473D02*
X366012Y378968D01*
X368551D02*
X371091D01*
X369821D01*
Y386586D01*
X368551Y385316D01*
X309116Y458976D02*
X307847Y460246D01*
X305308D01*
X304038Y458976D01*
Y453898D01*
X305308Y452628D01*
X307847D01*
X309116Y453898D01*
X316734Y452628D02*
X311656D01*
X316734Y457706D01*
Y458976D01*
X315464Y460246D01*
X312925D01*
X311656Y458976D01*
X524256Y377696D02*
Y370078D01*
X528065D01*
X529334Y371348D01*
Y372617D01*
X528065Y373887D01*
X524256D01*
X528065D01*
X529334Y375156D01*
Y376426D01*
X528065Y377696D01*
X524256D01*
X531874Y370078D02*
Y377696D01*
X535682D01*
X536952Y376426D01*
Y373887D01*
X535682Y372617D01*
X531874D01*
X534413D02*
X536952Y370078D01*
X539491D02*
X542030D01*
X540761D01*
Y377696D01*
X539491Y376426D01*
D14*
X377103Y240789D02*
X370332D01*
Y235710D01*
X373718D01*
X370332D01*
Y230632D01*
X380489D02*
Y240789D01*
X387260Y230632D01*
Y240789D01*
X390645Y235710D02*
X397417D01*
X400802Y230632D02*
Y240789D01*
X404188Y237403D01*
X407573Y240789D01*
Y230632D01*
X410959D02*
X414344D01*
X412652D01*
Y240789D01*
X410959Y239096D01*
X426194Y240789D02*
X422808Y239096D01*
X419423Y235710D01*
Y232325D01*
X421116Y230632D01*
X424501D01*
X426194Y232325D01*
Y234018D01*
X424501Y235710D01*
X419423D01*
X429580Y230632D02*
Y240789D01*
X434658D01*
X436351Y239096D01*
Y235710D01*
X434658Y234018D01*
X429580D01*
X243753Y31239D02*
X236982D01*
Y21082D01*
X243753D01*
X236982Y26160D02*
X240368D01*
X253910Y29546D02*
X252217Y31239D01*
X248832D01*
X247139Y29546D01*
Y27853D01*
X248832Y26160D01*
X252217D01*
X253910Y24468D01*
Y22775D01*
X252217Y21082D01*
X248832D01*
X247139Y22775D01*
X257295Y21082D02*
Y31239D01*
X262374D01*
X264067Y29546D01*
Y26160D01*
X262374Y24468D01*
X257295D01*
X267452Y29546D02*
X269145Y31239D01*
X272530D01*
X274223Y29546D01*
Y27853D01*
X272530Y26160D01*
X270838D01*
X272530D01*
X274223Y24468D01*
Y22775D01*
X272530Y21082D01*
X269145D01*
X267452Y22775D01*
X284380Y21082D02*
X277609D01*
X284380Y27853D01*
Y29546D01*
X282687Y31239D01*
X279302D01*
X277609Y29546D01*
X722719Y313603D02*
X721026Y311910D01*
Y308525D01*
X722719Y306832D01*
X724411D01*
X726104Y308525D01*
Y311910D01*
X727797Y313603D01*
X729490D01*
X731182Y311910D01*
Y308525D01*
X729490Y306832D01*
X731182Y316989D02*
Y320374D01*
Y318682D01*
X724411D01*
Y316989D01*
X734568Y328838D02*
Y330531D01*
X732875Y332224D01*
X724411D01*
Y327145D01*
X726104Y325453D01*
X729490D01*
X731182Y327145D01*
Y332224D01*
X734568Y358053D02*
Y351282D01*
X727797Y358053D01*
X726104D01*
X724411Y356360D01*
Y352975D01*
X726104Y351282D01*
X734568Y366517D02*
X724411D01*
X729490Y361439D01*
Y368210D01*
X724411Y371595D02*
X731182D01*
X734568Y374981D01*
X731182Y378367D01*
X724411D01*
X734568Y381752D02*
X727797D01*
X724411Y385138D01*
X727797Y388523D01*
X734568D01*
X729490D01*
Y381752D01*
X726104Y398680D02*
X724411Y396987D01*
Y393602D01*
X726104Y391909D01*
X732875D01*
X734568Y393602D01*
Y396987D01*
X732875Y398680D01*
X734568Y427903D02*
Y421132D01*
X727797Y427903D01*
X726104D01*
X724411Y426210D01*
Y422825D01*
X726104Y421132D01*
X734568Y436367D02*
X724411D01*
X729490Y431289D01*
Y438060D01*
X724411Y441445D02*
X731182D01*
X734568Y444831D01*
X731182Y448217D01*
X724411D01*
X734568Y451602D02*
X727797D01*
X724411Y454988D01*
X727797Y458373D01*
X734568D01*
X729490D01*
Y451602D01*
X726104Y468530D02*
X724411Y466837D01*
Y463452D01*
X726104Y461759D01*
X732875D01*
X734568Y463452D01*
Y466837D01*
X732875Y468530D01*
X729490Y471916D02*
Y478687D01*
X726104Y488843D02*
X724411Y487151D01*
Y483765D01*
X726104Y482072D01*
X732875D01*
X734568Y483765D01*
Y487151D01*
X732875Y488843D01*
X729490D01*
Y485458D01*
X510032Y523574D02*
Y516803D01*
X513418Y513418D01*
X516803Y516803D01*
Y523574D01*
X525267Y513418D02*
X521881D01*
X520189Y515110D01*
Y518496D01*
X521881Y520189D01*
X525267D01*
X526960Y518496D01*
Y516803D01*
X520189D01*
X530345Y520189D02*
Y513418D01*
Y516803D01*
X532038Y518496D01*
X533731Y520189D01*
X535424D01*
X550659Y513418D02*
X554044D01*
X552352D01*
Y523574D01*
X550659Y521881D01*
X560816Y511725D02*
X562508Y513418D01*
Y515110D01*
X560816D01*
Y513418D01*
X562508D01*
X560816Y511725D01*
X559123Y510032D01*
X586207Y523574D02*
X582822D01*
X584515D01*
Y515110D01*
X582822Y513418D01*
X581129D01*
X579436Y515110D01*
X589593Y520189D02*
Y515110D01*
X591286Y513418D01*
X596364D01*
Y520189D01*
X599750Y513418D02*
Y520189D01*
X604828D01*
X606521Y518496D01*
Y513418D01*
X614985D02*
X611599D01*
X609907Y515110D01*
Y518496D01*
X611599Y520189D01*
X614985D01*
X616678Y518496D01*
Y516803D01*
X609907D01*
X636991Y513418D02*
X630220D01*
X636991Y520189D01*
Y521881D01*
X635298Y523574D01*
X631913D01*
X630220Y521881D01*
X640377D02*
X642069Y523574D01*
X645455D01*
X647148Y521881D01*
Y515110D01*
X645455Y513418D01*
X642069D01*
X640377Y515110D01*
Y521881D01*
X657305Y513418D02*
X650533D01*
X657305Y520189D01*
Y521881D01*
X655612Y523574D01*
X652226D01*
X650533Y521881D01*
X667461Y513418D02*
X660690D01*
X667461Y520189D01*
Y521881D01*
X665768Y523574D01*
X662383D01*
X660690Y521881D01*
X85003D02*
X83310Y523574D01*
X79925D01*
X78232Y521881D01*
Y520189D01*
X79925Y518496D01*
X83310D01*
X85003Y516803D01*
Y515110D01*
X83310Y513418D01*
X79925D01*
X78232Y515110D01*
X93467Y513418D02*
X90082D01*
X88389Y515110D01*
Y518496D01*
X90082Y520189D01*
X93467D01*
X95160Y518496D01*
Y516803D01*
X88389D01*
X103624Y513418D02*
X100238D01*
X98545Y515110D01*
Y518496D01*
X100238Y520189D01*
X103624D01*
X105317Y518496D01*
Y516803D01*
X98545D01*
X108702Y523574D02*
Y513418D01*
X113780D01*
X115473Y515110D01*
Y516803D01*
Y518496D01*
X113780Y520189D01*
X108702D01*
X118859D02*
Y515110D01*
X120552Y513418D01*
X125630D01*
Y520189D01*
X129016D02*
Y513418D01*
Y516803D01*
X130708Y518496D01*
X132401Y520189D01*
X134094D01*
X142558Y510032D02*
X144251D01*
X145943Y511725D01*
Y520189D01*
X140865D01*
X139172Y518496D01*
Y515110D01*
X140865Y513418D01*
X145943D01*
X159486Y521881D02*
X161179Y523574D01*
X164564D01*
X166257Y521881D01*
Y520189D01*
X164564Y518496D01*
X162871D01*
X164564D01*
X166257Y516803D01*
Y515110D01*
X164564Y513418D01*
X161179D01*
X159486Y515110D01*
X169643Y523574D02*
Y513418D01*
X173028Y516803D01*
X176414Y513418D01*
Y523574D01*
X179799Y513418D02*
Y520189D01*
X183185Y523574D01*
X186570Y520189D01*
Y513418D01*
Y518496D01*
X179799D01*
X200113Y513418D02*
Y523574D01*
X203498Y520189D01*
X206884Y523574D01*
Y513418D01*
X210269D02*
Y523574D01*
X215348D01*
X217041Y521881D01*
Y518496D01*
X215348Y516803D01*
X210269D01*
X220426Y521881D02*
X222119Y523574D01*
X225504D01*
X227197Y521881D01*
Y520189D01*
X225504Y518496D01*
X223812D01*
X225504D01*
X227197Y516803D01*
Y515110D01*
X225504Y513418D01*
X222119D01*
X220426Y515110D01*
X240740Y513418D02*
Y523574D01*
X245818D01*
X247511Y521881D01*
Y518496D01*
X245818Y516803D01*
X240740D01*
X250896Y513418D02*
X254282D01*
X252589D01*
Y523574D01*
X250896D01*
X261053Y520189D02*
X264439D01*
X266131Y518496D01*
Y513418D01*
X261053D01*
X259360Y515110D01*
X261053Y516803D01*
X266131D01*
X269517Y520189D02*
Y515110D01*
X271210Y513418D01*
X276288D01*
Y511725D01*
X274595Y510032D01*
X272903D01*
X276288Y513418D02*
Y520189D01*
X284752Y513418D02*
X281367D01*
X279674Y515110D01*
Y518496D01*
X281367Y520189D01*
X284752D01*
X286445Y518496D01*
Y516803D01*
X279674D01*
X289830Y520189D02*
Y513418D01*
Y516803D01*
X291523Y518496D01*
X293216Y520189D01*
X294909D01*
M02*
