G04*
G04 #@! TF.GenerationSoftware,Altium Limited,Altium Designer,22.5.1 (42)*
G04*
G04 Layer_Physical_Order=1*
G04 Layer_Color=255*
%FSLAX44Y44*%
%MOMM*%
G71*
G04*
G04 #@! TF.SameCoordinates,8346B9DA-9F02-4375-9B92-E9104D78EC3E*
G04*
G04*
G04 #@! TF.FilePolarity,Positive*
G04*
G01*
G75*
%ADD12C,0.2540*%
%ADD14C,0.2032*%
%ADD15R,1.8500X0.9500*%
%ADD16R,2.6000X1.1000*%
%ADD17R,1.1000X1.4000*%
%ADD18R,1.3000X1.5000*%
%ADD19R,1.7500X3.2000*%
%ADD20R,1.7500X0.9500*%
%ADD21R,1.4500X0.5500*%
%ADD22R,1.4500X0.5500*%
%ADD23R,1.4000X1.1000*%
%ADD24R,1.5000X1.3000*%
%ADD46C,0.3810*%
%ADD47C,1.2000*%
%ADD48R,1.2000X1.2000*%
%ADD49C,1.9500*%
%ADD50R,1.9500X1.9500*%
%ADD51C,0.8000*%
%ADD52R,1.5000X1.5000*%
%ADD53C,1.5000*%
%ADD54R,2.5400X1.2700*%
%ADD55O,2.5400X1.2700*%
%ADD56C,2.5000*%
%ADD57C,0.7620*%
D12*
X22352Y147659D02*
Y223520D01*
X95250Y254000D02*
X139700Y298450D01*
X44450Y254000D02*
X95250D01*
X139700Y298450D02*
Y342900D01*
X330200Y304800D02*
X342900Y292100D01*
X325000Y304800D02*
X330200D01*
X342900Y292100D02*
X431800D01*
X330200Y304800D02*
X342900D01*
Y355600D02*
X349250D01*
X342900Y304800D02*
Y355600D01*
X321900D02*
X342900D01*
X292354Y139700D02*
X330200D01*
X342900Y152400D01*
Y191770D01*
X282448Y129794D02*
X292354Y139700D01*
X331470Y203200D02*
X342900Y191770D01*
X325000Y241300D02*
Y304800D01*
X355600Y361950D02*
X361950D01*
X349250Y355600D02*
X355600Y361950D01*
X247650Y101600D02*
X272288D01*
X282448Y111760D01*
Y129794D01*
X317500Y203200D02*
X331470D01*
X325000Y210700D02*
Y241300D01*
X317500Y203200D02*
X325000Y210700D01*
X27432Y228600D02*
X44450D01*
X22352Y223520D02*
X27432Y228600D01*
D14*
X311150Y387350D02*
X374650D01*
X311150D02*
Y424300D01*
X304800Y387350D02*
X311150D01*
X374650D02*
X387350Y374650D01*
X374650Y322834D02*
X387350Y335534D01*
Y374650D01*
X304800Y424300D02*
Y430244D01*
X393700Y311150D02*
X406400D01*
X430609Y335359D01*
Y341709D01*
X596900Y240234D02*
Y285750D01*
X583946Y298704D02*
X596900Y285750D01*
X583946Y298704D02*
Y312736D01*
X577850Y219964D02*
Y300150D01*
X553950Y324050D02*
X577850Y300150D01*
Y219964D02*
X589064Y208750D01*
X582594Y314088D02*
Y319106D01*
Y314088D02*
X583946Y312736D01*
X534900Y349050D02*
X552650D01*
X582594Y319106D01*
X303650Y386200D02*
X304800Y387350D01*
X303650Y368350D02*
Y386200D01*
X319902Y365492D02*
X320294Y365100D01*
X319902Y365492D02*
Y369708D01*
X317500Y372110D02*
X319902Y369708D01*
X317500Y372110D02*
Y377952D01*
X505460Y39878D02*
X520700Y55118D01*
Y99568D01*
X549300Y128168D01*
X267970Y431800D02*
X279400Y420370D01*
Y193040D02*
X294640Y177800D01*
X279400Y193040D02*
Y420370D01*
X268478Y406400D02*
X273050Y401828D01*
Y168148D02*
X288798Y152400D01*
X273050Y168148D02*
Y401828D01*
X430609Y341709D02*
X431800Y342900D01*
X364784Y298450D02*
X392510D01*
X393700Y299640D02*
Y311150D01*
X392510Y298450D02*
X393700Y299640D01*
X374650Y313434D02*
Y322834D01*
X372366Y311150D02*
X374650Y313434D01*
X368300Y330200D02*
Y342900D01*
X596900Y240234D02*
X601384Y235750D01*
X623824D01*
X355600Y307634D02*
Y317500D01*
X368300Y330200D01*
X355600Y307634D02*
X364784Y298450D01*
X423672Y39878D02*
X505460D01*
X319319Y125181D02*
X338369D01*
X423672Y39878D01*
X317500Y127000D02*
X319319Y125181D01*
X626974Y238900D02*
X647950D01*
X623824Y235750D02*
X626974Y238900D01*
X647950Y215900D02*
X710950D01*
X628942D02*
X647950D01*
X621792Y208750D02*
X628942Y215900D01*
X603250Y208750D02*
X621792D01*
X589064D02*
X603250D01*
X526850Y324050D02*
X553950D01*
X508000Y342900D02*
X526850Y324050D01*
X649986D02*
X650186Y323850D01*
X300400Y365100D02*
X303650Y368350D01*
X590436Y192900D02*
X647950D01*
X580136Y203200D02*
X590436Y192900D01*
X561950Y203200D02*
X580136D01*
X542950D02*
Y241300D01*
X508000Y317500D02*
X561950Y263550D01*
Y241300D02*
Y263550D01*
X400050Y346100D02*
X413004D01*
X422504Y355600D01*
X436372D01*
X441706Y350266D01*
Y327406D02*
Y350266D01*
X431800Y317500D02*
X441706Y327406D01*
X625450Y110350D02*
Y152400D01*
Y110350D02*
X646900Y88900D01*
X568300Y110300D02*
Y152400D01*
X546900Y88900D02*
X568300Y110300D01*
X317500Y101600D02*
X335534D01*
X401828Y35306D01*
X517652D01*
X606450Y124104D01*
Y152400D01*
X549300Y128168D02*
Y152400D01*
X294640Y177800D02*
X317500D01*
X247650Y431800D02*
X267970D01*
X288798Y152400D02*
X317500D01*
X247650Y406400D02*
X268478D01*
X320294Y365100D02*
X321900D01*
D15*
X595400Y482400D02*
D03*
Y457400D02*
D03*
X534900D02*
D03*
Y482400D02*
D03*
Y349050D02*
D03*
Y324050D02*
D03*
X595400D02*
D03*
Y349050D02*
D03*
D16*
X603250Y235750D02*
D03*
Y208750D02*
D03*
D17*
X325000Y241300D02*
D03*
X310000D02*
D03*
X325000Y304800D02*
D03*
X310000D02*
D03*
D18*
X561950Y203200D02*
D03*
X542950D02*
D03*
X549300Y152400D02*
D03*
X568300D02*
D03*
X396850Y311150D02*
D03*
X377850D02*
D03*
X561950Y241300D02*
D03*
X542950D02*
D03*
X625450Y152400D02*
D03*
X606450D02*
D03*
D19*
X710950Y215900D02*
D03*
D20*
X647950Y192900D02*
D03*
Y215900D02*
D03*
Y238900D02*
D03*
D21*
X321900Y365100D02*
D03*
Y355600D02*
D03*
Y346100D02*
D03*
X300400D02*
D03*
Y355600D02*
D03*
D22*
X300400Y365100D02*
D03*
D23*
X19050Y146050D02*
D03*
Y131050D02*
D03*
X311150Y439300D02*
D03*
Y424300D02*
D03*
D24*
X368300Y365100D02*
D03*
Y346100D02*
D03*
X400050D02*
D03*
Y365100D02*
D03*
D46*
X312300Y438150D02*
X450596D01*
X311150Y439300D02*
X312300Y438150D01*
X450850D02*
Y455168D01*
Y387350D02*
Y438150D01*
X351905Y463550D02*
X431800D01*
X453498Y485248D01*
X530400Y482400D02*
X534900D01*
X527555Y479555D02*
X530400Y482400D01*
X462496Y476250D02*
X525323D01*
X527555Y478482D01*
Y479555D01*
X450850Y487896D02*
X462496Y476250D01*
X453082Y457400D02*
X534900D01*
X450850Y455168D02*
X453082Y457400D01*
X450850Y67310D02*
Y387350D01*
Y67310D02*
X467360Y50800D01*
X431800Y368300D02*
X450850Y387350D01*
X25400Y133350D02*
X63380D01*
X82430Y152400D01*
X243860D02*
X247650D01*
X239754Y148293D02*
X243860Y152400D01*
X215900Y120650D02*
X239754Y144504D01*
X215900Y69850D02*
Y120650D01*
X239754Y144504D02*
Y148293D01*
X82430Y152400D02*
X243860D01*
X292100Y438150D02*
X304800D01*
X285750Y431800D02*
X292100Y438150D01*
X285750Y361950D02*
Y431800D01*
X666750D02*
Y444500D01*
X595486Y349137D02*
X611832D01*
X596900Y349250D02*
Y458021D01*
X666750Y355600D02*
Y368300D01*
X611832Y349137D02*
X660286D01*
X666750Y355600D01*
Y323850D02*
X673100D01*
X650186D02*
X666750D01*
X285750Y361950D02*
X291255Y356445D01*
X299555D01*
X300400Y346100D02*
Y355600D01*
X299555Y356445D02*
X300400Y355600D01*
X234950Y50800D02*
X317500D01*
X215900Y69850D02*
X234950Y50800D01*
X467360D02*
X495300D01*
X310000Y241300D02*
Y304800D01*
X300400Y346100D02*
X310000D01*
Y304800D02*
Y346100D01*
X417474Y368300D02*
X431800D01*
X414274Y365100D02*
X417474Y368300D01*
X400050Y365100D02*
X414274D01*
X596900Y324050D02*
X649986D01*
X603250Y482400D02*
X628850D01*
X666750Y444500D01*
D47*
X431800Y292100D02*
D03*
Y317500D02*
D03*
Y342900D02*
D03*
Y368300D02*
D03*
X508000D02*
D03*
Y342900D02*
D03*
Y317500D02*
D03*
D48*
Y292100D02*
D03*
D49*
X666750Y323850D02*
D03*
Y374650D02*
D03*
X596900Y38900D02*
D03*
X646900Y88900D02*
D03*
X546900D02*
D03*
D50*
X666750Y425450D02*
D03*
D51*
X646900Y38900D02*
D03*
X546900D02*
D03*
X596900Y88900D02*
D03*
D52*
X355600Y412750D02*
D03*
D53*
Y438150D02*
D03*
Y463550D02*
D03*
Y488950D02*
D03*
D54*
X317500Y203200D02*
D03*
X247650Y76200D02*
D03*
D55*
X317500Y177800D02*
D03*
Y152400D02*
D03*
Y127000D02*
D03*
Y101600D02*
D03*
Y76200D02*
D03*
Y50800D02*
D03*
Y25400D02*
D03*
X495300Y203200D02*
D03*
Y177800D02*
D03*
Y152400D02*
D03*
Y127000D02*
D03*
Y101600D02*
D03*
Y76200D02*
D03*
Y50800D02*
D03*
Y25400D02*
D03*
X247650Y101600D02*
D03*
Y127000D02*
D03*
Y152400D02*
D03*
Y177800D02*
D03*
Y203200D02*
D03*
Y228600D02*
D03*
Y254000D02*
D03*
Y279400D02*
D03*
Y304800D02*
D03*
Y330200D02*
D03*
Y355600D02*
D03*
Y381000D02*
D03*
Y406400D02*
D03*
Y431800D02*
D03*
Y457200D02*
D03*
X44450Y177800D02*
D03*
Y203200D02*
D03*
Y228600D02*
D03*
Y254000D02*
D03*
Y279400D02*
D03*
Y304800D02*
D03*
Y330200D02*
D03*
Y355600D02*
D03*
Y381000D02*
D03*
Y406400D02*
D03*
Y431800D02*
D03*
Y457200D02*
D03*
D56*
X450850Y437896D02*
D03*
Y487896D02*
D03*
D57*
X139700Y342900D02*
D03*
X317500Y377952D02*
D03*
M02*
