G04*
G04 #@! TF.GenerationSoftware,Altium Limited,Altium Designer,19.1.8 (144)*
G04*
G04 Layer_Color=65535*
%FSLAX44Y44*%
%MOMM*%
G71*
G01*
G75*
%ADD10C,0.2500*%
%ADD11C,0.2000*%
%ADD12C,0.1000*%
%ADD13C,0.2540*%
%ADD14C,0.1270*%
%ADD15C,0.2032*%
D10*
X641330Y248760D02*
G03*
X641330Y248760I-1250J0D01*
G01*
D11*
X667250Y458950D02*
G03*
X667250Y458950I-500J0D01*
G01*
X609600Y-50100D02*
G03*
X609600Y-48100I0J1000D01*
G01*
D02*
G03*
X609600Y-50100I0J-1000D01*
G01*
X657580Y249460D02*
X664080D01*
X657580Y182460D02*
Y249460D01*
Y182460D02*
X664080D01*
X547650Y493400D02*
X582650D01*
Y446400D02*
Y493400D01*
X547650Y446400D02*
X582650D01*
X547650D02*
Y493400D01*
X525650Y490650D02*
X544150D01*
X591250Y218250D02*
Y226250D01*
X615250Y218250D02*
Y226250D01*
X534924Y213106D02*
X548432D01*
X533400Y211582D02*
X534924Y213106D01*
X534874Y193344D02*
X548282D01*
X533400Y194818D02*
X534874Y193344D01*
X533400Y194818D02*
Y211582D01*
X435400Y279900D02*
X514000D01*
X435400Y380500D02*
X504400D01*
X302150Y340100D02*
Y340600D01*
X320150Y340100D02*
Y340600D01*
X302150Y370600D02*
Y371100D01*
X320150Y370600D02*
Y371100D01*
X302150D02*
X320150D01*
X302150Y340100D02*
X320150D01*
X368300Y400050D02*
Y504190D01*
X342900Y400050D02*
Y504190D01*
Y400050D02*
X368300D01*
X342900Y504190D02*
X368300D01*
X547650Y360050D02*
X582650D01*
Y313050D02*
Y360050D01*
X547650Y313050D02*
X582650D01*
X547650D02*
Y360050D01*
X525650Y357300D02*
X544150D01*
D12*
X298650Y370850D02*
G03*
X298650Y370850I-500J0D01*
G01*
X707500Y298450D02*
Y450850D01*
X626000Y298450D02*
X707500D01*
X626000D02*
Y450850D01*
X707500D01*
X549600Y114900D02*
X669600D01*
X549600Y8900D02*
X669600D01*
D13*
X412750Y215900D02*
G03*
X425450Y215900I6350J0D01*
G01*
X165100Y9800D02*
G03*
X152400Y9800I-6350J360D01*
G01*
X510850Y463296D02*
G03*
X510850Y463296I-60000J0D01*
G01*
X351790Y12700D02*
Y215900D01*
Y12700D02*
X486410D01*
Y215900D01*
X425450D02*
X486410D01*
X351790D02*
X412750D01*
X138430Y45720D02*
X179070D01*
X128270Y35560D02*
X138430Y45720D01*
X128270Y22860D02*
Y35560D01*
X189230Y22860D02*
Y35560D01*
X179070Y45720D02*
X189230Y35560D01*
X128270Y22860D02*
X189230D01*
X166370Y10160D02*
X185420D01*
X238760D02*
Y495300D01*
X103505D02*
X196215D01*
X78740Y10160D02*
Y495300D01*
Y10160D02*
X151130D01*
X185420D02*
X238760D01*
X196215Y495300D02*
X238760D01*
X78740D02*
X103505D01*
X426212Y482346D02*
Y492506D01*
X420878Y487426D02*
X431038D01*
X72303Y521881D02*
X70610Y523574D01*
X67225D01*
X65532Y521881D01*
Y520189D01*
X67225Y518496D01*
X70610D01*
X72303Y516803D01*
Y515110D01*
X70610Y513418D01*
X67225D01*
X65532Y515110D01*
X80767Y513418D02*
X77382D01*
X75689Y515110D01*
Y518496D01*
X77382Y520189D01*
X80767D01*
X82460Y518496D01*
Y516803D01*
X75689D01*
X90924Y513418D02*
X87538D01*
X85845Y515110D01*
Y518496D01*
X87538Y520189D01*
X90924D01*
X92617Y518496D01*
Y516803D01*
X85845D01*
X96002Y523574D02*
Y513418D01*
X101081D01*
X102773Y515110D01*
Y516803D01*
Y518496D01*
X101081Y520189D01*
X96002D01*
X106159D02*
Y515110D01*
X107852Y513418D01*
X112930D01*
Y520189D01*
X116316D02*
Y513418D01*
Y516803D01*
X118008Y518496D01*
X119701Y520189D01*
X121394D01*
X129858Y510032D02*
X131551D01*
X133244Y511725D01*
Y520189D01*
X128165D01*
X126472Y518496D01*
Y515110D01*
X128165Y513418D01*
X133244D01*
X146786Y521881D02*
X148479Y523574D01*
X151864D01*
X153557Y521881D01*
Y520189D01*
X151864Y518496D01*
X150171D01*
X151864D01*
X153557Y516803D01*
Y515110D01*
X151864Y513418D01*
X148479D01*
X146786Y515110D01*
X156943Y523574D02*
Y513418D01*
X160328Y516803D01*
X163714Y513418D01*
Y523574D01*
X167099Y513418D02*
Y520189D01*
X170485Y523574D01*
X173870Y520189D01*
Y513418D01*
Y518496D01*
X167099D01*
X187413Y513418D02*
Y523574D01*
X190798Y520189D01*
X194184Y523574D01*
Y513418D01*
X197569D02*
Y523574D01*
X202648D01*
X204340Y521881D01*
Y518496D01*
X202648Y516803D01*
X197569D01*
X207726Y521881D02*
X209419Y523574D01*
X212805D01*
X214497Y521881D01*
Y520189D01*
X212805Y518496D01*
X211112D01*
X212805D01*
X214497Y516803D01*
Y515110D01*
X212805Y513418D01*
X209419D01*
X207726Y515110D01*
X228040Y513418D02*
Y523574D01*
X233118D01*
X234811Y521881D01*
Y518496D01*
X233118Y516803D01*
X228040D01*
X238196Y513418D02*
X241582D01*
X239889D01*
Y523574D01*
X238196D01*
X248353Y520189D02*
X251739D01*
X253431Y518496D01*
Y513418D01*
X248353D01*
X246660Y515110D01*
X248353Y516803D01*
X253431D01*
X256817Y520189D02*
Y515110D01*
X258510Y513418D01*
X263588D01*
Y511725D01*
X261895Y510032D01*
X260203D01*
X263588Y513418D02*
Y520189D01*
X272052Y513418D02*
X268666D01*
X266974Y515110D01*
Y518496D01*
X268666Y520189D01*
X272052D01*
X273745Y518496D01*
Y516803D01*
X266974D01*
X277130Y520189D02*
Y513418D01*
Y516803D01*
X278823Y518496D01*
X280516Y520189D01*
X282209D01*
X514350Y524507D02*
Y517736D01*
X517736Y514350D01*
X521121Y517736D01*
Y524507D01*
X529585Y514350D02*
X526199D01*
X524507Y516043D01*
Y519428D01*
X526199Y521121D01*
X529585D01*
X531278Y519428D01*
Y517736D01*
X524507D01*
X534663Y521121D02*
Y514350D01*
Y517736D01*
X536356Y519428D01*
X538049Y521121D01*
X539742D01*
X561748Y514350D02*
X554977D01*
X561748Y521121D01*
Y522814D01*
X560055Y524507D01*
X556670D01*
X554977Y522814D01*
X566826Y512657D02*
X568519Y514350D01*
Y516043D01*
X566826D01*
Y514350D01*
X568519D01*
X566826Y512657D01*
X565134Y510964D01*
X592218Y524507D02*
X588833D01*
X590525D01*
Y516043D01*
X588833Y514350D01*
X587140D01*
X585447Y516043D01*
X595604Y521121D02*
Y516043D01*
X597297Y514350D01*
X602375D01*
Y521121D01*
X605760Y524507D02*
Y514350D01*
X612532D01*
X632845D02*
X626074D01*
X632845Y521121D01*
Y522814D01*
X631152Y524507D01*
X627767D01*
X626074Y522814D01*
X636231D02*
X637924Y524507D01*
X641309D01*
X643002Y522814D01*
Y516043D01*
X641309Y514350D01*
X637924D01*
X636231Y516043D01*
Y522814D01*
X653158Y514350D02*
X646387D01*
X653158Y521121D01*
Y522814D01*
X651466Y524507D01*
X648080D01*
X646387Y522814D01*
X663315Y514350D02*
X656544D01*
X663315Y521121D01*
Y522814D01*
X661622Y524507D01*
X658237D01*
X656544Y522814D01*
X285750Y270507D02*
Y260350D01*
X292521D01*
X297600Y267121D02*
X300985D01*
X302678Y265428D01*
Y260350D01*
X297600D01*
X295907Y262043D01*
X297600Y263736D01*
X302678D01*
X307756Y260350D02*
Y268814D01*
Y265428D01*
X306063D01*
X309449D01*
X307756D01*
Y268814D01*
X309449Y270507D01*
X314527Y260350D02*
X317913D01*
X316220D01*
Y270507D01*
X314527D01*
X328070Y260350D02*
X324684D01*
X322991Y262043D01*
Y265428D01*
X324684Y267121D01*
X328070D01*
X329762Y265428D01*
Y263736D01*
X322991D01*
X333148Y267121D02*
Y262043D01*
X334841Y260350D01*
X339919D01*
Y267121D01*
X343305D02*
Y260350D01*
Y263736D01*
X344998Y265428D01*
X346690Y267121D01*
X348383D01*
X363618Y270507D02*
Y260350D01*
X368697D01*
X370389Y262043D01*
Y268814D01*
X368697Y270507D01*
X363618D01*
X378853Y260350D02*
X375468D01*
X373775Y262043D01*
Y265428D01*
X375468Y267121D01*
X378853D01*
X380546Y265428D01*
Y263736D01*
X373775D01*
X383932Y260350D02*
X389010D01*
X390703Y262043D01*
X389010Y263736D01*
X385625D01*
X383932Y265428D01*
X385625Y267121D01*
X390703D01*
X394088Y260350D02*
X397474D01*
X395781D01*
Y267121D01*
X394088D01*
X405938Y256964D02*
X407631D01*
X409324Y258657D01*
Y267121D01*
X404245D01*
X402552Y265428D01*
Y262043D01*
X404245Y260350D01*
X409324D01*
X412709D02*
Y267121D01*
X417787D01*
X419480Y265428D01*
Y260350D01*
X422866D02*
X427944D01*
X429637Y262043D01*
X427944Y263736D01*
X424559D01*
X422866Y265428D01*
X424559Y267121D01*
X429637D01*
D14*
X527050Y439417D02*
Y431800D01*
X530859D01*
X532128Y433070D01*
Y434339D01*
X530859Y435609D01*
X527050D01*
X530859D01*
X532128Y436878D01*
Y438148D01*
X530859Y439417D01*
X527050D01*
X534668Y431800D02*
Y439417D01*
X538476D01*
X539746Y438148D01*
Y435609D01*
X538476Y434339D01*
X534668D01*
X537207D02*
X539746Y431800D01*
X547363D02*
X542285D01*
X547363Y436878D01*
Y438148D01*
X546094Y439417D01*
X543555D01*
X542285Y438148D01*
X608328Y253998D02*
X607059Y255268D01*
X604520D01*
X603250Y253998D01*
Y248920D01*
X604520Y247650D01*
X607059D01*
X608328Y248920D01*
X610868Y253998D02*
X612137Y255268D01*
X614676D01*
X615946Y253998D01*
Y252728D01*
X614676Y251459D01*
X613407D01*
X614676D01*
X615946Y250189D01*
Y248920D01*
X614676Y247650D01*
X612137D01*
X610868Y248920D01*
X303528Y247648D02*
X302259Y248918D01*
X299720D01*
X298450Y247648D01*
Y242570D01*
X299720Y241300D01*
X302259D01*
X303528Y242570D01*
X311146Y248918D02*
X308607Y247648D01*
X306068Y245109D01*
Y242570D01*
X307337Y241300D01*
X309876D01*
X311146Y242570D01*
Y243839D01*
X309876Y245109D01*
X306068D01*
X552450Y223517D02*
Y215900D01*
X556259D01*
X557528Y217170D01*
Y222248D01*
X556259Y223517D01*
X552450D01*
X560067Y215900D02*
X562607D01*
X561337D01*
Y223517D01*
X560067Y222248D01*
X497840Y271777D02*
X500379D01*
X499110D01*
Y264160D01*
X497840D01*
X500379D01*
X509266Y270508D02*
X507997Y271777D01*
X505457D01*
X504188Y270508D01*
Y265430D01*
X505457Y264160D01*
X507997D01*
X509266Y265430D01*
X511805Y264160D02*
X514345D01*
X513075D01*
Y271777D01*
X511805Y270508D01*
X622044Y482090D02*
X619505D01*
X620775D01*
Y475742D01*
X619505Y474472D01*
X618236D01*
X616966Y475742D01*
X624584Y474472D02*
X627123D01*
X625853D01*
Y482090D01*
X624584Y480820D01*
X545336Y139444D02*
X542797D01*
X544067D01*
Y133096D01*
X542797Y131826D01*
X541528D01*
X540258Y133096D01*
X552954Y131826D02*
X547876D01*
X552954Y136904D01*
Y138174D01*
X551684Y139444D01*
X549145D01*
X547876Y138174D01*
X543052Y167386D02*
Y175004D01*
X546861D01*
X548130Y173734D01*
Y171195D01*
X546861Y169925D01*
X543052D01*
X545591D02*
X548130Y167386D01*
X550670Y173734D02*
X551939Y175004D01*
X554478D01*
X555748Y173734D01*
Y172464D01*
X554478Y171195D01*
X555748Y169925D01*
Y168656D01*
X554478Y167386D01*
X551939D01*
X550670Y168656D01*
Y169925D01*
X551939Y171195D01*
X550670Y172464D01*
Y173734D01*
X551939Y171195D02*
X554478D01*
X293370Y386077D02*
Y379730D01*
X294640Y378460D01*
X297179D01*
X298448Y379730D01*
Y386077D01*
X300987Y378460D02*
X303527D01*
X302257D01*
Y386077D01*
X300987Y384808D01*
X343154Y519174D02*
X345693D01*
X344424D01*
Y511556D01*
X343154D01*
X345693D01*
X354580Y517904D02*
X353311Y519174D01*
X350771D01*
X349502Y517904D01*
Y512826D01*
X350771Y511556D01*
X353311D01*
X354580Y512826D01*
X357119Y517904D02*
X358389Y519174D01*
X360928D01*
X362198Y517904D01*
Y516634D01*
X360928Y515365D01*
X359659D01*
X360928D01*
X362198Y514095D01*
Y512826D01*
X360928Y511556D01*
X358389D01*
X357119Y512826D01*
X317500Y223517D02*
Y217170D01*
X318770Y215900D01*
X321309D01*
X322578Y217170D01*
Y223517D01*
X330196Y215900D02*
X325117D01*
X330196Y220978D01*
Y222248D01*
X328926Y223517D01*
X326387D01*
X325117Y222248D01*
X247650Y45718D02*
Y39370D01*
X248920Y38100D01*
X251459D01*
X252728Y39370D01*
Y45718D01*
X255268Y44448D02*
X256537Y45718D01*
X259076D01*
X260346Y44448D01*
Y43178D01*
X259076Y41909D01*
X257807D01*
X259076D01*
X260346Y40639D01*
Y39370D01*
X259076Y38100D01*
X256537D01*
X255268Y39370D01*
X168910Y27943D02*
Y34290D01*
X167640Y35560D01*
X165101D01*
X163832Y34290D01*
Y27943D01*
X156214Y29212D02*
X157484Y27943D01*
X160023D01*
X161292Y29212D01*
Y30482D01*
X160023Y31751D01*
X157484D01*
X156214Y33021D01*
Y34290D01*
X157484Y35560D01*
X160023D01*
X161292Y34290D01*
X153675Y27943D02*
Y35560D01*
X149866D01*
X148597Y34290D01*
Y33021D01*
X149866Y31751D01*
X153675D01*
X149866D01*
X148597Y30482D01*
Y29212D01*
X149866Y27943D01*
X153675D01*
X411480Y523239D02*
X410211Y524509D01*
X407672D01*
X406402Y523239D01*
Y518161D01*
X407672Y516891D01*
X410211D01*
X411480Y518161D01*
X417828Y516891D02*
Y524509D01*
X414020Y520700D01*
X419098D01*
X632206Y265173D02*
Y258826D01*
X633476Y257556D01*
X636015D01*
X637284Y258826D01*
Y265173D01*
X643632Y257556D02*
Y265173D01*
X639823Y261365D01*
X644902D01*
X600202Y167386D02*
Y175004D01*
X604011D01*
X605280Y173734D01*
Y171195D01*
X604011Y169925D01*
X600202D01*
X602741D02*
X605280Y167386D01*
X612898Y175004D02*
X607820D01*
Y171195D01*
X610359Y172464D01*
X611628D01*
X612898Y171195D01*
Y168656D01*
X611628Y167386D01*
X609089D01*
X607820Y168656D01*
X392684Y378968D02*
Y386586D01*
X396493D01*
X397762Y385316D01*
Y382777D01*
X396493Y381507D01*
X392684D01*
X395223D02*
X397762Y378968D01*
X404110D02*
Y386586D01*
X400302Y382777D01*
X405380D01*
X393700Y323850D02*
Y331468D01*
X397509D01*
X398778Y330198D01*
Y327659D01*
X397509Y326389D01*
X393700D01*
X396239D02*
X398778Y323850D01*
X406396D02*
X401317D01*
X406396Y328928D01*
Y330198D01*
X405126Y331468D01*
X402587D01*
X401317Y330198D01*
X536702Y256286D02*
Y263904D01*
X540511D01*
X541780Y262634D01*
Y260095D01*
X540511Y258825D01*
X536702D01*
X539241D02*
X541780Y256286D01*
X544319Y262634D02*
X545589Y263904D01*
X548128D01*
X549398Y262634D01*
Y261364D01*
X548128Y260095D01*
X546859D01*
X548128D01*
X549398Y258825D01*
Y257556D01*
X548128Y256286D01*
X545589D01*
X544319Y257556D01*
X360934Y378968D02*
Y386586D01*
X364743D01*
X366012Y385316D01*
Y382777D01*
X364743Y381507D01*
X360934D01*
X363473D02*
X366012Y378968D01*
X368551D02*
X371091D01*
X369821D01*
Y386586D01*
X368551Y385316D01*
X17778Y120648D02*
X16509Y121917D01*
X13970D01*
X12700Y120648D01*
Y115570D01*
X13970Y114300D01*
X16509D01*
X17778Y115570D01*
X25396Y121917D02*
X20317D01*
Y118109D01*
X22857Y119378D01*
X24126D01*
X25396Y118109D01*
Y115570D01*
X24126Y114300D01*
X21587D01*
X20317Y115570D01*
X309116Y458976D02*
X307847Y460246D01*
X305308D01*
X304038Y458976D01*
Y453898D01*
X305308Y452628D01*
X307847D01*
X309116Y453898D01*
X316734Y452628D02*
X311656D01*
X316734Y457706D01*
Y458976D01*
X315464Y460246D01*
X312925D01*
X311656Y458976D01*
X322578Y323848D02*
X321309Y325117D01*
X318770D01*
X317500Y323848D01*
Y318770D01*
X318770Y317500D01*
X321309D01*
X322578Y318770D01*
X325117Y317500D02*
X327657D01*
X326387D01*
Y325117D01*
X325117Y323848D01*
X524256Y377696D02*
Y370078D01*
X528065D01*
X529334Y371348D01*
Y372617D01*
X528065Y373887D01*
X524256D01*
X528065D01*
X529334Y375156D01*
Y376426D01*
X528065Y377696D01*
X524256D01*
X531874Y370078D02*
Y377696D01*
X535682D01*
X536952Y376426D01*
Y373887D01*
X535682Y372617D01*
X531874D01*
X534413D02*
X536952Y370078D01*
X539491D02*
X542030D01*
X540761D01*
Y377696D01*
X539491Y376426D01*
D15*
X394121Y232407D02*
X387350D01*
Y227328D01*
X390736D01*
X387350D01*
Y222250D01*
X397507D02*
Y232407D01*
X404278Y222250D01*
Y232407D01*
X407663Y227328D02*
X414435D01*
X417820Y222250D02*
Y232407D01*
X421206Y229021D01*
X424591Y232407D01*
Y222250D01*
X427977D02*
X431362D01*
X429670D01*
Y232407D01*
X427977Y230714D01*
X443212Y232407D02*
X439826Y230714D01*
X436441Y227328D01*
Y223943D01*
X438134Y222250D01*
X441519D01*
X443212Y223943D01*
Y225636D01*
X441519Y227328D01*
X436441D01*
X446598Y222250D02*
Y232407D01*
X451676D01*
X453369Y230714D01*
Y227328D01*
X451676Y225636D01*
X446598D01*
X254421Y29207D02*
X247650D01*
Y19050D01*
X254421D01*
X247650Y24128D02*
X251036D01*
X264578Y27514D02*
X262885Y29207D01*
X259499D01*
X257807Y27514D01*
Y25821D01*
X259499Y24128D01*
X262885D01*
X264578Y22436D01*
Y20743D01*
X262885Y19050D01*
X259499D01*
X257807Y20743D01*
X267963Y19050D02*
Y29207D01*
X273042D01*
X274735Y27514D01*
Y24128D01*
X273042Y22436D01*
X267963D01*
X278120Y27514D02*
X279813Y29207D01*
X283199D01*
X284891Y27514D01*
Y25821D01*
X283199Y24128D01*
X281506D01*
X283199D01*
X284891Y22436D01*
Y20743D01*
X283199Y19050D01*
X279813D01*
X278120Y20743D01*
X295048Y19050D02*
X288277D01*
X295048Y25821D01*
Y27514D01*
X293355Y29207D01*
X289970D01*
X288277Y27514D01*
X722719Y313603D02*
X721026Y311910D01*
Y308525D01*
X722719Y306832D01*
X724411D01*
X726104Y308525D01*
Y311910D01*
X727797Y313603D01*
X729490D01*
X731182Y311910D01*
Y308525D01*
X729490Y306832D01*
X731182Y316989D02*
Y320374D01*
Y318682D01*
X724411D01*
Y316989D01*
X734568Y328838D02*
Y330531D01*
X732875Y332224D01*
X724411D01*
Y327145D01*
X726104Y325453D01*
X729490D01*
X731182Y327145D01*
Y332224D01*
X734568Y358053D02*
Y351282D01*
X727797Y358053D01*
X726104D01*
X724411Y356360D01*
Y352975D01*
X726104Y351282D01*
X734568Y366517D02*
X724411D01*
X729490Y361439D01*
Y368210D01*
X724411Y371595D02*
X731182D01*
X734568Y374981D01*
X731182Y378367D01*
X724411D01*
X734568Y381752D02*
X727797D01*
X724411Y385138D01*
X727797Y388523D01*
X734568D01*
X729490D01*
Y381752D01*
X726104Y398680D02*
X724411Y396987D01*
Y393602D01*
X726104Y391909D01*
X732875D01*
X734568Y393602D01*
Y396987D01*
X732875Y398680D01*
X734568Y427903D02*
Y421132D01*
X727797Y427903D01*
X726104D01*
X724411Y426210D01*
Y422825D01*
X726104Y421132D01*
X734568Y436367D02*
X724411D01*
X729490Y431289D01*
Y438060D01*
X724411Y441445D02*
X731182D01*
X734568Y444831D01*
X731182Y448217D01*
X724411D01*
X734568Y451602D02*
X727797D01*
X724411Y454988D01*
X727797Y458373D01*
X734568D01*
X729490D01*
Y451602D01*
X726104Y468530D02*
X724411Y466837D01*
Y463452D01*
X726104Y461759D01*
X732875D01*
X734568Y463452D01*
Y466837D01*
X732875Y468530D01*
X729490Y471916D02*
Y478687D01*
X726104Y488843D02*
X724411Y487151D01*
Y483765D01*
X726104Y482072D01*
X732875D01*
X734568Y483765D01*
Y487151D01*
X732875Y488843D01*
X729490D01*
Y485458D01*
M02*
