G04*
G04 #@! TF.GenerationSoftware,Altium Limited,Altium Designer,22.5.1 (42)*
G04*
G04 Layer_Color=8388736*
%FSLAX44Y44*%
%MOMM*%
G71*
G04*
G04 #@! TF.SameCoordinates,8346B9DA-9F02-4375-9B92-E9104D78EC3E*
G04*
G04*
G04 #@! TF.FilePolarity,Negative*
G04*
G01*
G75*
%ADD25R,2.0532X1.1532*%
%ADD26R,2.8032X1.3032*%
%ADD27R,1.3032X1.6032*%
%ADD28R,1.5032X1.7032*%
%ADD29R,1.9532X3.4032*%
%ADD30R,1.9532X1.1532*%
%ADD31R,1.6532X0.7532*%
%ADD32R,1.6532X0.7532*%
%ADD33R,1.6032X1.3032*%
%ADD34R,1.7032X1.5032*%
%ADD35C,1.4032*%
%ADD36R,1.4032X1.4032*%
%ADD37C,2.1532*%
%ADD38R,2.1532X2.1532*%
%ADD39C,1.0032*%
%ADD40R,1.7032X1.7032*%
%ADD41C,1.7032*%
%ADD42R,2.7432X1.4732*%
%ADD43O,2.7432X1.4732*%
%ADD44C,2.7032*%
%ADD45C,0.9652*%
D25*
X595400Y482400D02*
D03*
Y457400D02*
D03*
X534900D02*
D03*
Y482400D02*
D03*
Y349050D02*
D03*
Y324050D02*
D03*
X595400D02*
D03*
Y349050D02*
D03*
D26*
X603250Y235750D02*
D03*
Y208750D02*
D03*
D27*
X325000Y241300D02*
D03*
X310000D02*
D03*
X325000Y304800D02*
D03*
X310000D02*
D03*
D28*
X561950Y203200D02*
D03*
X542950D02*
D03*
X549300Y152400D02*
D03*
X568300D02*
D03*
X396850Y311150D02*
D03*
X377850D02*
D03*
X561950Y241300D02*
D03*
X542950D02*
D03*
X625450Y152400D02*
D03*
X606450D02*
D03*
D29*
X710950Y215900D02*
D03*
D30*
X647950Y192900D02*
D03*
Y215900D02*
D03*
Y238900D02*
D03*
D31*
X321900Y365100D02*
D03*
Y355600D02*
D03*
Y346100D02*
D03*
X300400D02*
D03*
Y355600D02*
D03*
D32*
X300400Y365100D02*
D03*
D33*
X19050Y146050D02*
D03*
Y131050D02*
D03*
X311150Y439300D02*
D03*
Y424300D02*
D03*
D34*
X368300Y365100D02*
D03*
Y346100D02*
D03*
X400050D02*
D03*
Y365100D02*
D03*
D35*
X431800Y292100D02*
D03*
Y317500D02*
D03*
Y342900D02*
D03*
Y368300D02*
D03*
X508000D02*
D03*
Y342900D02*
D03*
Y317500D02*
D03*
D36*
Y292100D02*
D03*
D37*
X666750Y323850D02*
D03*
Y374650D02*
D03*
X596900Y38900D02*
D03*
X646900Y88900D02*
D03*
X546900D02*
D03*
D38*
X666750Y425450D02*
D03*
D39*
X646900Y38900D02*
D03*
X546900D02*
D03*
X596900Y88900D02*
D03*
D40*
X355600Y412750D02*
D03*
D41*
Y438150D02*
D03*
Y463550D02*
D03*
Y488950D02*
D03*
D42*
X317500Y203200D02*
D03*
X247650Y76200D02*
D03*
D43*
X317500Y177800D02*
D03*
Y152400D02*
D03*
Y127000D02*
D03*
Y101600D02*
D03*
Y76200D02*
D03*
Y50800D02*
D03*
Y25400D02*
D03*
X495300Y203200D02*
D03*
Y177800D02*
D03*
Y152400D02*
D03*
Y127000D02*
D03*
Y101600D02*
D03*
Y76200D02*
D03*
Y50800D02*
D03*
Y25400D02*
D03*
X247650Y101600D02*
D03*
Y127000D02*
D03*
Y152400D02*
D03*
Y177800D02*
D03*
Y203200D02*
D03*
Y228600D02*
D03*
Y254000D02*
D03*
Y279400D02*
D03*
Y304800D02*
D03*
Y330200D02*
D03*
Y355600D02*
D03*
Y381000D02*
D03*
Y406400D02*
D03*
Y431800D02*
D03*
Y457200D02*
D03*
X44450Y177800D02*
D03*
Y203200D02*
D03*
Y228600D02*
D03*
Y254000D02*
D03*
Y279400D02*
D03*
Y304800D02*
D03*
Y330200D02*
D03*
Y355600D02*
D03*
Y381000D02*
D03*
Y406400D02*
D03*
Y431800D02*
D03*
Y457200D02*
D03*
D44*
X450850Y437896D02*
D03*
Y487896D02*
D03*
D45*
X139700Y342900D02*
D03*
X317500Y377952D02*
D03*
M02*
