G04*
G04 #@! TF.GenerationSoftware,Altium Limited,Altium Designer,19.1.8 (144)*
G04*
G04 Layer_Physical_Order=2*
G04 Layer_Color=16711680*
%FSLAX44Y44*%
%MOMM*%
G71*
G01*
G75*
%ADD14C,0.2032*%
%ADD46C,0.3810*%
%ADD47C,0.5080*%
%ADD50C,1.9500*%
%ADD51R,1.9500X1.9500*%
%ADD52O,2.5400X1.2700*%
%ADD53R,2.5400X1.2700*%
%ADD54R,1.5000X1.5000*%
%ADD55C,1.5000*%
%ADD56C,2.5000*%
%ADD57C,1.0160*%
D14*
X190500Y33020D02*
X208280Y15240D01*
X190500Y33020D02*
Y114300D01*
X208280Y15240D02*
X233680D01*
D46*
X129540Y233680D02*
X185166D01*
X114554Y248666D02*
X129540Y233680D01*
X66040Y248666D02*
X114554D01*
X66040Y40640D02*
X81280D01*
X60960Y45720D02*
X66040Y40640D01*
X60960Y45720D02*
Y228600D01*
X66040Y233680D01*
Y248666D01*
D47*
X81280Y327660D02*
X114300D01*
X63500Y345440D02*
X81280Y327660D01*
X63500Y345440D02*
Y396240D01*
X53340Y406400D02*
X63500Y396240D01*
X40640Y406400D02*
X53340D01*
D50*
X213360Y472440D02*
D03*
X162560D02*
D03*
D51*
X111760D02*
D03*
D52*
X81280Y167640D02*
D03*
Y142240D02*
D03*
Y116840D02*
D03*
Y91440D02*
D03*
Y66040D02*
D03*
Y40640D02*
D03*
Y15240D02*
D03*
X233680Y167640D02*
D03*
Y142240D02*
D03*
Y116840D02*
D03*
Y91440D02*
D03*
Y66040D02*
D03*
Y40640D02*
D03*
D53*
Y15240D02*
D03*
D54*
X40640Y381000D02*
D03*
D55*
Y406400D02*
D03*
Y431800D02*
D03*
Y457200D02*
D03*
D56*
X66040Y248666D02*
D03*
Y298666D02*
D03*
D57*
X190500Y114300D02*
D03*
X114300Y327660D02*
D03*
X185166Y233680D02*
D03*
M02*
